<svg width="1431" height="1321" xmlns="http://www.w3.org/2000/svg" xmlns:xlink="http://www.w3.org/1999/xlink" xml:space="preserve" overflow="hidden"><defs><clipPath id="clip0"><rect x="522" y="1039" width="1431" height="1321"/></clipPath><clipPath id="clip1"><rect x="522" y="1054" width="1431" height="1306"/></clipPath><clipPath id="clip2"><rect x="522" y="1054" width="2872" height="1306"/></clipPath><clipPath id="clip3"><rect x="705" y="1092" width="1153" height="1122"/></clipPath><clipPath id="clip4"><rect x="705" y="1092" width="1153" height="1122"/></clipPath><clipPath id="clip5"><rect x="705" y="1092" width="1153" height="1122"/></clipPath></defs><g clip-path="url(#clip0)" transform="translate(-522 -1039)"><g clip-path="url(#clip1)"><g clip-path="url(#clip2)"><g clip-path="url(#clip3)"><path d="M490.199 412.469C495.291 412.459 499.409 408.324 499.401 403.234 499.391 398.142 495.256 394.021 490.164 394.032 485.072 394.042 480.953 398.177 480.964 403.267 480.968 405.707 481.937 408.043 483.661 409.767 485.394 411.502 487.747 412.473 490.199 412.469Z" stroke="#0C2D48" stroke-width="2.06235" stroke-linejoin="round" fill="#0C2D48" transform="matrix(1.00092 0 0 1 522.029 1054.95)"/><path d="M797.076 687.339C802.168 687.328 806.286 683.193 806.278 678.103 806.268 673.011 802.133 668.891 797.041 668.901 791.949 668.911 787.83 673.046 787.841 678.136 787.845 680.576 788.814 682.913 790.538 684.637 792.271 686.371 794.624 687.343 797.076 687.339Z" stroke="#0C2D48" stroke-width="2.06235" stroke-linejoin="round" fill="#0C2D48" transform="matrix(1.00092 0 0 1 522.029 1054.95)"/><path d="M1103.95 954.639C1109.05 954.398 1112.99 950.071 1112.74 944.973 1112.52 940.215 1108.71 936.406 1103.95 936.181 1098.86 936.169 1094.72 940.287 1094.71 945.379 1094.71 945.394 1094.71 945.406 1094.71 945.42 1094.71 950.512 1098.84 954.639 1103.93 954.639 1103.94 954.639 1103.95 954.639 1103.95 954.639Z" stroke="#0C2D48" stroke-width="2.06235" stroke-linejoin="round" fill="#0C2D48" transform="matrix(1.00092 0 0 1 522.029 1054.95)"/></g><g clip-path="url(#clip4)"><path d="M183.322 1158.67 2868.5 1158.67 2868.5 472.545 183.322 472.545Z" fill="#5E8D5A" fill-opacity="0.2" transform="matrix(1.00092 0 0 1 522.029 1054.95)"/></g><g clip-path="url(#clip5)"><path d="M183.322 472.545 2868.5 472.545 2868.5 37.5759 183.322 37.5759Z" fill="#F68F3C" fill-opacity="0.2" transform="matrix(1.00092 0 0 1 522.029 1054.95)"/></g><path d="M183.322 1158.67 183.322 1138.04" stroke="#000000" stroke-width="5.15586" stroke-linejoin="round" fill="none" transform="matrix(1.00092 0 0 1 522.029 1054.95)"/><path d="M167.875 1172.86 152.964 1196.16 167.875 1196.16ZM166.308 1167.72 173.732 1167.72 173.732 1196.16 179.919 1196.16 179.919 1201.07 173.732 1201.07 173.732 1211.38 167.875 1211.38 167.875 1201.07 148.18 1201.07 148.18 1195.38Z" transform="matrix(1.00092 0 0 1 522.029 1054.95)"/><path d="M202.316 1171.62C199.336 1171.58 196.628 1173.35 195.469 1176.09 192.416 1184.81 192.416 1194.3 195.469 1203.01 197.115 1206.8 201.524 1208.54 205.317 1206.89 207.059 1206.14 208.447 1204.75 209.204 1203.01 212.257 1194.3 212.257 1184.81 209.204 1176.09 208.031 1173.34 205.308 1171.57 202.316 1171.62ZM202.316 1166.94C206.814 1166.74 211.081 1168.94 213.515 1172.73 216.113 1176.61 217.392 1182.22 217.392 1189.56 217.392 1196.9 216.113 1202.51 213.515 1206.39 209.142 1212.57 200.584 1214.04 194.399 1209.67 193.127 1208.77 192.017 1207.66 191.118 1206.39 188.546 1202.51 187.261 1196.9 187.261 1189.56 187.261 1182.22 188.546 1176.61 191.118 1172.73 193.552 1168.94 197.818 1166.74 202.316 1166.94Z" transform="matrix(1.00092 0 0 1 522.029 1054.95)"/><path d="M566.918 1158.67 566.918 1138.04" stroke="#000000" stroke-width="5.15586" stroke-linejoin="round" fill="none" transform="matrix(1.00092 0 0 1 522.029 1054.95)"/><path d="M535.323 1167.72 558.463 1167.72 558.463 1172.69 540.706 1172.69 540.706 1183.37C541.547 1183.09 542.409 1182.87 543.284 1182.71 544.135 1182.57 544.997 1182.5 545.862 1182.51 550.085 1182.28 554.231 1183.72 557.411 1186.51 563.173 1192.63 563.173 1202.17 557.411 1208.29 553.913 1211.08 549.502 1212.47 545.037 1212.18 543.158 1212.18 541.281 1212.02 539.427 1211.71 537.439 1211.38 535.476 1210.91 533.549 1210.31L533.549 1204.41C535.271 1205.32 537.101 1206.01 538.994 1206.47 540.933 1206.93 542.921 1207.16 544.913 1207.15 547.819 1207.32 550.679 1206.38 552.915 1204.51 556.846 1200.5 556.846 1194.09 552.915 1190.08 550.683 1188.2 547.823 1187.24 544.913 1187.4 543.323 1187.4 541.739 1187.58 540.19 1187.93 538.542 1188.31 536.94 1188.85 535.405 1189.56Z" transform="matrix(1.00092 0 0 1 522.029 1054.95)"/><path d="M585.912 1171.62C582.932 1171.58 580.224 1173.35 579.065 1176.09 576.013 1184.81 576.013 1194.3 579.065 1203.01 580.711 1206.8 585.12 1208.54 588.913 1206.89 590.656 1206.14 592.044 1204.75 592.801 1203.01 595.853 1194.3 595.853 1184.81 592.801 1176.09 591.627 1173.34 588.905 1171.57 585.912 1171.62ZM585.912 1166.94C590.41 1166.74 594.677 1168.94 597.111 1172.73 599.709 1176.61 600.988 1182.22 600.988 1189.56 600.988 1196.9 599.709 1202.51 597.111 1206.39 592.739 1212.57 584.18 1214.04 577.995 1209.67 576.723 1208.77 575.613 1207.66 574.714 1206.39 572.142 1202.51 570.857 1196.9 570.857 1189.56 570.857 1182.22 572.142 1176.61 574.714 1172.73 577.147 1168.94 581.414 1166.74 585.912 1166.94Z" transform="matrix(1.00092 0 0 1 522.029 1054.95)"/><path d="M950.514 1158.67 950.514 1138.04" stroke="#000000" stroke-width="5.15586" stroke-linejoin="round" fill="none" transform="matrix(1.00092 0 0 1 522.029 1054.95)"/><path d="M932.18 1187.17C929.8 1187.13 927.53 1188.16 925.993 1189.97 922.914 1194.46 922.914 1200.38 925.993 1204.86 929.276 1208.34 934.758 1208.5 938.237 1205.22 938.359 1205.1 938.479 1204.99 938.594 1204.86 941.673 1200.38 941.673 1194.46 938.594 1189.97 937.016 1188.08 934.641 1187.04 932.18 1187.17ZM943.894 1168.61 943.894 1173.97C942.453 1173.29 940.947 1172.76 939.398 1172.38 937.934 1172.01 936.433 1171.83 934.923 1171.82 931.485 1171.61 928.157 1173.08 925.993 1175.76 923.661 1179.3 922.44 1183.45 922.487 1187.68 923.566 1186.03 925.059 1184.69 926.818 1183.79 928.59 1182.87 930.557 1182.4 932.551 1182.43 936.396 1182.24 940.141 1183.69 942.863 1186.41 945.519 1189.37 946.893 1193.28 946.678 1197.25 946.866 1201.24 945.429 1205.13 942.698 1208.04 939.91 1210.83 936.08 1212.33 932.139 1212.16 927.577 1212.38 923.223 1210.23 920.631 1206.47 917.977 1202.59 916.645 1196.99 916.63 1189.64 916.317 1183.74 918.049 1177.91 921.538 1173.14 924.671 1169.08 929.569 1166.78 934.696 1166.96 936.206 1166.96 937.711 1167.1 939.192 1167.39 940.797 1167.71 942.374 1168.14 943.915 1168.69Z" transform="matrix(1.00092 0 0 1 522.029 1054.95)"/><path d="M969.509 1171.62C966.529 1171.58 963.821 1173.35 962.662 1176.09 959.609 1184.81 959.609 1194.3 962.662 1203.01 964.307 1206.8 968.717 1208.54 972.509 1206.89 974.252 1206.14 975.64 1204.75 976.397 1203.01 979.449 1194.3 979.449 1184.81 976.397 1176.09 975.223 1173.34 972.501 1171.57 969.509 1171.62ZM969.509 1166.94C974.007 1166.74 978.274 1168.94 980.707 1172.73 983.306 1176.61 984.584 1182.22 984.584 1189.56 984.584 1196.9 983.306 1202.51 980.707 1206.39 976.335 1212.57 967.776 1214.04 961.591 1209.67 960.319 1208.77 959.209 1207.66 958.31 1206.39 955.738 1202.51 954.453 1196.9 954.453 1189.56 954.453 1182.22 955.738 1176.61 958.31 1172.73 960.744 1168.94 965.011 1166.74 969.509 1166.94Z" transform="matrix(1.00092 0 0 1 522.029 1054.95)"/><path d="M1334.11 1158.67 1334.11 1138.04" stroke="#000000" stroke-width="5.15586" stroke-linejoin="round" fill="none" transform="matrix(1.00092 0 0 1 522.029 1054.95)"/><path d="M1300.95 1167.72 1329 1167.72 1329 1170.24 1313.16 1211.32 1306.97 1211.32 1321.96 1172.69 1300.95 1172.69Z" transform="matrix(1.00092 0 0 1 522.029 1054.95)"/><path d="M1353.1 1171.62C1350.12 1171.58 1347.42 1173.35 1346.26 1176.09 1343.21 1184.81 1343.21 1194.3 1346.26 1203.01 1347.9 1206.8 1352.31 1208.54 1356.11 1206.89 1357.85 1206.14 1359.24 1204.75 1359.99 1203.01 1363.05 1194.3 1363.05 1184.81 1359.99 1176.09 1358.82 1173.34 1356.1 1171.57 1353.1 1171.62ZM1353.1 1166.94C1357.6 1166.74 1361.87 1168.94 1364.3 1172.73 1366.9 1176.61 1368.18 1182.22 1368.18 1189.56 1368.18 1196.9 1366.9 1202.51 1364.3 1206.39 1359.93 1212.57 1351.37 1214.04 1345.19 1209.67 1343.92 1208.77 1342.81 1207.66 1341.91 1206.39 1339.33 1202.51 1338.05 1196.9 1338.05 1189.56 1338.05 1182.22 1339.33 1176.61 1341.91 1172.73 1344.34 1168.94 1348.61 1166.74 1353.1 1166.94Z" transform="matrix(1.00092 0 0 1 522.029 1054.95)"/><path d="M621.343 1233.84 627.304 1233.84 636.46 1270.69 645.514 1233.84 652.155 1233.84 661.332 1270.69 670.469 1233.84 676.449 1233.84 665.498 1277.46 658.074 1277.46 648.896 1239.59 639.595 1277.46 632.171 1277.46Z" transform="matrix(1.00092 0 0 1 522.029 1054.95)"/><path d="M684.121 1244.75 689.504 1244.75 689.504 1277.46 684.121 1277.46ZM684.121 1232 689.504 1232 689.504 1238.81 684.121 1238.81Z" transform="matrix(1.00092 0 0 1 522.029 1054.95)"/><path d="M722.254 1249.78 722.254 1232.09 727.637 1232.09 727.637 1277.46 722.254 1277.46 722.254 1272.47C721.264 1274.28 719.785 1275.78 717.985 1276.8 716.077 1277.79 713.947 1278.28 711.798 1278.22 708.003 1278.29 704.409 1276.52 702.146 1273.48 697.197 1265.93 697.197 1256.16 702.146 1248.61 704.413 1245.57 708.007 1243.81 711.798 1243.88 713.945 1243.82 716.075 1244.3 717.985 1245.29 719.808 1246.35 721.289 1247.91 722.254 1249.78ZM703.961 1261.21C703.773 1264.49 704.625 1267.74 706.395 1270.51 709.166 1274.21 714.413 1274.96 718.115 1272.19 718.754 1271.71 719.321 1271.15 719.8 1270.51 723.056 1264.75 723.056 1257.7 719.8 1251.95 717.143 1248.24 711.99 1247.4 708.288 1250.05 707.558 1250.58 706.918 1251.22 706.395 1251.95 704.648 1254.68 703.796 1257.89 703.961 1261.12Z" transform="matrix(1.00092 0 0 1 522.029 1054.95)"/><path d="M744.032 1235.45 744.032 1244.75 755.087 1244.75 755.087 1248.87 744.032 1248.87 744.032 1266.63C743.803 1268.42 744.189 1270.23 745.125 1271.77 746.406 1272.71 748.002 1273.12 749.58 1272.92L755.087 1272.92 755.087 1277.42 749.58 1277.42C745.455 1277.42 742.568 1276.63 740.98 1275.09 739.392 1273.54 738.629 1270.71 738.629 1266.63L738.629 1248.87 734.669 1248.87 734.669 1244.75 738.629 1244.75 738.629 1235.45Z" transform="matrix(1.00092 0 0 1 522.029 1054.95)"/><path d="M789.342 1257.7 789.342 1277.46 783.98 1277.46 783.98 1257.89C784.166 1255.43 783.526 1252.99 782.165 1250.94 780.835 1249.34 778.816 1248.48 776.741 1248.63 774.153 1248.49 771.639 1249.51 769.874 1251.41 768.096 1253.51 767.195 1256.21 767.357 1258.96L767.357 1277.52 761.954 1277.52 761.954 1232.15 767.357 1232.15 767.357 1249.78C768.49 1247.96 770.047 1246.45 771.895 1245.37 773.751 1244.37 775.832 1243.88 777.937 1243.92 781.167 1243.69 784.32 1244.97 786.455 1247.41 788.598 1250.39 789.621 1254.04 789.342 1257.7Z" transform="matrix(1.00092 0 0 1 522.029 1054.95)"/><path d="M831.971 1232.07C829.502 1236.24 827.555 1240.7 826.176 1245.35 824.913 1249.68 824.274 1254.16 824.278 1258.67 824.284 1263.19 824.924 1267.69 826.176 1272.03 827.562 1276.69 829.506 1281.15 831.971 1285.34L827.31 1285.34C824.594 1281.13 822.412 1276.6 820.814 1271.85 817.967 1263.35 817.967 1254.16 820.814 1245.66 822.439 1240.91 824.647 1236.37 827.392 1232.17Z" transform="matrix(1.00092 0 0 1 522.029 1054.95)"/><path d="M857.503 1249C854.673 1248.94 851.957 1250.12 850.058 1252.21 847.812 1254.71 846.343 1257.81 845.83 1261.12 844.964 1264.2 845.213 1267.48 846.531 1270.38 847.754 1272.62 850.175 1273.94 852.718 1273.75 855.572 1273.75 858.286 1272.51 860.163 1270.36 862.452 1267.75 863.954 1264.55 864.494 1261.12 865.236 1258.15 864.952 1255.01 863.69 1252.21 862.456 1250 860.023 1248.74 857.503 1249ZM858.348 1244.71 876.208 1244.71 875.136 1250.07 869.134 1250.07C870.687 1253.52 871.056 1257.4 870.186 1261.08 869.429 1265.86 867.169 1270.26 863.731 1273.66 860.518 1276.71 856.234 1278.36 851.811 1278.26 847.108 1278.26 843.747 1276.74 841.684 1273.66 839.622 1270.59 839.107 1266.42 840.158 1261.08 840.893 1256.29 843.149 1251.87 846.593 1248.46 849.886 1245.75 854.094 1244.41 858.348 1244.71Z" transform="matrix(1.00092 0 0 1 522.029 1054.95)"/><path d="M879.467 1232.07 884.148 1232.07C886.872 1236.28 889.069 1240.81 890.686 1245.55 893.6 1254.08 893.6 1263.32 890.686 1271.85 889.077 1276.6 886.881 1281.13 884.148 1285.34L879.467 1285.34C881.939 1281.16 883.884 1276.69 885.262 1272.03 887.815 1263.32 887.815 1254.06 885.262 1245.35 883.874 1240.7 881.927 1236.24 879.467 1232.07Z" transform="matrix(1.00092 0 0 1 522.029 1054.95)"/><path d="M183.322 934.449 203.945 934.449" stroke="#000000" stroke-width="5.15586" stroke-linejoin="round" fill="none" transform="matrix(1.00092 0 0 1 522.029 1054.95)"/><path d="M99.9825 917.455C97.0169 917.403 94.3131 919.146 93.1355 921.868 90.0828 930.588 90.0828 940.083 93.1355 948.803 94.8097 952.595 99.2417 954.313 103.035 952.639 104.747 951.884 106.115 950.514 106.871 948.803 109.923 940.083 109.923 930.588 106.871 921.868 105.683 919.136 102.961 917.393 99.9825 917.455ZM99.9825 912.773C104.491 912.573 108.766 914.79 111.202 918.589 113.786 922.44 115.072 928.049 115.058 935.418 115.058 942.76 113.78 948.349 111.202 952.226 108.758 956.015 104.486 958.221 99.9825 958.021 95.4858 958.213 91.2241 956.008 88.784 952.226 86.206 948.349 84.9274 942.76 84.9274 935.418 84.9274 928.076 86.206 922.446 88.784 918.589 91.2132 914.793 95.4798 912.578 99.9825 912.773Z" transform="matrix(1.00092 0 0 1 522.029 1054.95)"/><path d="M125.432 949.751 131.619 949.751 131.619 957.176 125.432 957.176Z" transform="matrix(1.00092 0 0 1 522.029 1054.95)"/><path d="M145.457 952.206 155.109 952.206 155.109 918.94 144.612 921.002 144.612 915.681 155.047 913.619 160.863 913.619 160.863 952.267 170.494 952.267 170.494 957.238 145.457 957.238Z" transform="matrix(1.00092 0 0 1 522.029 1054.95)"/><path d="M183.322 486.012 203.945 486.012" stroke="#000000" stroke-width="5.15586" stroke-linejoin="round" fill="none" transform="matrix(1.00092 0 0 1 522.029 1054.95)"/><path d="M99.9825 469.019C97.002 468.977 94.2939 470.747 93.1355 473.494 90.0828 482.214 90.0828 491.709 93.1355 500.428 94.8097 504.221 99.2417 505.939 103.035 504.264 104.747 503.509 106.115 502.14 106.871 500.428 109.923 491.709 109.923 482.214 106.871 473.494 105.702 470.737 102.976 468.967 99.9825 469.019ZM99.9825 464.337C104.504 464.151 108.781 466.391 111.202 470.215 113.786 474.078 115.072 479.687 115.058 487.044 115.058 494.385 113.78 499.974 111.202 503.852 108.758 507.64 104.486 509.847 99.9825 509.647 95.4858 509.839 91.2241 507.634 88.784 503.852 86.206 499.974 84.9274 494.385 84.9274 487.044 84.9274 479.702 86.206 474.071 88.784 470.215 91.1982 466.395 95.4674 464.154 99.9825 464.337Z" transform="matrix(1.00092 0 0 1 522.029 1054.95)"/><path d="M125.432 501.315 131.619 501.315 131.619 508.739 125.432 508.739Z" transform="matrix(1.00092 0 0 1 522.029 1054.95)"/><path d="M149.52 503.769 170.144 503.769 170.144 508.739 142.426 508.739 142.426 503.769C144.674 501.459 147.705 498.345 151.582 494.447 155.46 490.549 157.769 488.013 158.862 486.879 160.435 485.26 161.799 483.451 162.925 481.496 163.641 480.161 164.029 478.679 164.06 477.165 164.121 475.004 163.223 472.927 161.605 471.493 159.846 469.98 157.572 469.196 155.253 469.307 153.264 469.328 151.29 469.648 149.396 470.256 147.114 471.017 144.91 471.997 142.817 473.185L142.817 467.224C144.982 466.368 147.209 465.68 149.479 465.162 151.334 464.694 153.237 464.444 155.15 464.42 159.044 464.22 162.88 465.426 165.957 467.822 168.667 470.023 170.193 473.366 170.082 476.856 170.093 478.611 169.75 480.351 169.071 481.97 168.113 484.02 166.877 485.928 165.4 487.642 164.933 488.205 163.386 489.834 160.76 492.529 157.955 495.149 154.263 498.923 149.52 503.769Z" transform="matrix(1.00092 0 0 1 522.029 1054.95)"/><path d="M183.322 37.5759 203.945 37.5759" stroke="#000000" stroke-width="5.15586" stroke-linejoin="round" fill="none" transform="matrix(1.00092 0 0 1 522.029 1054.95)"/><path d="M99.9825 20.6235C97.002 20.5822 94.2939 22.3523 93.1355 25.0987 91.3699 29.3659 90.5875 33.9757 90.8463 38.5865 90.591 43.1837 91.3735 47.7794 93.1355 52.033 94.8097 55.8258 99.2417 57.5434 103.035 55.8691 104.747 55.1133 106.115 53.7451 106.871 52.033 108.633 47.7794 109.415 43.1837 109.16 38.5865 109.419 33.9757 108.636 29.3659 106.871 25.0987 105.702 22.342 102.976 20.571 99.9825 20.6235ZM99.9825 15.9419C104.491 15.7426 108.766 17.9583 111.202 21.7577 113.786 25.6211 115.072 31.2307 115.058 38.5865 115.058 45.9284 113.78 51.5174 111.202 55.3946 108.758 59.1829 104.486 61.3892 99.9825 61.1898 95.4858 61.3818 91.2241 59.1765 88.784 55.3946 86.206 51.5174 84.9274 45.9284 84.9274 38.5865 84.9274 31.2445 86.206 25.6143 88.784 21.7577 91.2031 17.9458 95.4715 15.7134 99.9825 15.9007Z" transform="matrix(1.00092 0 0 1 522.029 1054.95)"/><path d="M125.432 52.8785 131.619 52.8785 131.619 60.303 125.432 60.303Z" transform="matrix(1.00092 0 0 1 522.029 1054.95)"/><path d="M162.307 36.7716C164.882 37.242 167.219 38.5815 168.927 40.5663 170.544 42.5536 171.386 45.0592 171.298 47.6196 171.497 51.4695 169.851 55.184 166.864 57.6219 163.179 60.1947 158.728 61.4383 154.243 61.1485 152.354 61.1382 150.47 60.9586 148.613 60.6123 146.575 60.2176 144.569 59.6731 142.611 58.9831L142.611 53.291C144.291 54.2312 146.097 54.9258 147.973 55.3534 149.996 55.8619 152.075 56.1113 154.16 56.0958 157.14 56.2857 160.102 55.5198 162.616 53.9097 164.578 52.3957 165.666 50.0111 165.524 47.5371 165.634 45.214 164.63 42.9774 162.822 41.515 160.641 39.939 157.981 39.1664 155.295 39.3289L150.139 39.3289 150.139 34.5649 155.46 34.5649C157.802 34.7183 160.131 34.1108 162.1 32.8325 163.658 31.6521 164.525 29.7722 164.41 27.821 164.519 25.822 163.631 23.8991 162.038 22.6858 160.017 21.3661 157.622 20.7367 155.212 20.8916 153.466 20.8986 151.726 21.0782 150.015 21.4278 147.921 21.8318 145.854 22.3692 143.828 23.0364L143.828 17.7774C145.904 17.1933 148.011 16.7251 150.139 16.375 151.966 16.0723 153.814 15.9137 155.666 15.9007 159.448 15.6984 163.189 16.7734 166.287 18.953 168.859 20.9 170.321 23.9783 170.205 27.2023 170.287 29.446 169.555 31.6436 168.143 33.3894 166.606 35.1083 164.562 36.2932 162.307 36.7716Z" transform="matrix(1.00092 0 0 1 522.029 1054.95)"/><path d="M22.5002 799.262 44.1961 807.264 44.1961 791.24ZM16.6844 802.603 16.6844 795.9 60.2824 779.298 60.2824 785.486 49.1044 789.445 49.1044 809.099 60.2824 813.08 60.2824 819.267Z" transform="matrix(1.00092 0 0 1 522.029 1054.95)"/><path d="M32.5851 754.2C32.2357 754.847 31.9789 755.542 31.822 756.262 31.6496 757.033 31.5667 757.823 31.5745 758.613 31.4161 761.28 32.5151 763.868 34.5443 765.605 37.0115 767.386 40.0254 768.248 43.0618 768.038L60.2824 768.038 60.2824 773.38 27.5736 773.38 27.5736 767.976 32.6676 767.976C30.7933 766.966 29.2529 765.433 28.2335 763.563 27.2164 761.486 26.7276 759.191 26.8105 756.881 26.7818 756.477 26.7818 756.068 26.8105 755.664 26.8544 755.165 26.9233 754.67 27.0167 754.179Z" transform="matrix(1.00092 0 0 1 522.029 1054.95)"/><path d="M42.5874 720.583 45.2066 720.583 45.2066 745.332C48.3469 745.332 51.3697 744.138 53.6622 741.991 55.6854 739.734 56.7312 736.767 56.5701 733.741 56.5749 731.718 56.3253 729.701 55.8277 727.74 55.3214 725.688 54.5808 723.704 53.621 721.821L58.6944 721.821C59.5086 723.737 60.137 725.725 60.5711 727.76 61.0038 729.794 61.2183 731.869 61.2104 733.948 61.4408 738.518 59.8031 742.985 56.6733 746.322 53.3467 749.471 48.8741 751.119 44.2992 750.879 39.6517 751.129 35.0869 749.578 31.5539 746.548 28.3422 743.537 26.609 739.273 26.8105 734.876 26.6218 730.934 28.1754 727.111 31.0589 724.419 34.2739 721.72 38.3965 720.348 42.5874 720.583ZM40.9994 725.946C38.4355 725.847 35.9294 726.723 33.9875 728.4 32.2134 730.041 31.2485 732.378 31.3477 734.793 31.2177 737.433 32.1287 740.017 33.8843 741.991 35.7996 743.882 38.351 744.993 41.0407 745.105Z" transform="matrix(1.00092 0 0 1 522.029 1054.95)"/><path d="M43.8455 696.908C43.6244 699.997 44.1478 703.095 45.3716 705.941 46.4646 707.665 48.4334 708.63 50.4656 708.436 52.1813 708.515 53.8431 707.826 55.0028 706.56 56.1777 705.122 56.7735 703.299 56.6733 701.445 56.7821 698.69 55.6093 696.04 53.4972 694.268 51.1206 692.362 48.1246 691.401 45.0829 691.566L43.8867 691.566ZM41.6181 686.184 60.2824 686.184 60.2824 691.566 55.3121 691.566C57.2187 692.63 58.7793 694.219 59.808 696.145 60.8167 698.238 61.3049 700.546 61.231 702.868 61.388 705.799 60.3712 708.671 58.4056 710.849 56.4293 712.872 53.6822 713.953 50.8574 713.819 47.6711 714.003 44.5943 712.625 42.6081 710.127 40.4605 706.879 39.4191 703.023 39.6383 699.135L39.6383 691.608 39.1846 691.608C36.9989 691.482 34.8794 692.381 33.4512 694.041 31.9804 696.011 31.2503 698.434 31.3889 700.888 31.3885 702.73 31.61 704.565 32.0488 706.353 32.5257 708.135 33.2184 709.853 34.1112 711.468L29.0584 711.468C28.3325 709.608 27.7668 707.69 27.3673 705.735 26.987 703.959 26.7934 702.148 26.7899 700.331 26.4884 696.438 27.8266 692.595 30.4815 689.731 32.9975 687.359 36.6479 686.184 41.6181 686.184Z" transform="matrix(1.00092 0 0 1 522.029 1054.95)"/><path d="M14.8489 675.129 14.8489 669.747 60.2205 669.747 60.2205 675.129Z" transform="matrix(1.00092 0 0 1 522.029 1054.95)"/><path d="M28.5429 618.704 33.6162 618.704C32.8515 620.203 32.2699 621.789 31.8839 623.426 31.4858 625.095 31.2852 626.805 31.2858 628.52 31.16 630.593 31.5795 632.662 32.5026 634.522 33.2603 635.836 34.6781 636.628 36.1942 636.584 37.347 636.63 38.4464 636.095 39.1227 635.161 40.1506 633.375 40.8491 631.42 41.185 629.387L41.5769 627.551C42.0201 624.592 43.2127 621.795 45.0416 619.425 46.6616 617.769 48.9155 616.891 51.2287 617.013 54.0961 616.916 56.8187 618.273 58.4675 620.622 60.3799 623.562 61.3047 627.038 61.1073 630.542 61.103 632.375 60.9304 634.204 60.5917 636.007 60.2238 638.04 59.7138 640.045 59.0656 642.008L53.621 642.008C54.6076 640.146 55.389 638.182 55.9514 636.151 56.4553 634.281 56.7118 632.354 56.7145 630.418 56.8345 628.388 56.3845 626.367 55.4152 624.581 54.661 623.274 53.2531 622.484 51.7442 622.519 50.4635 622.461 49.2288 623.002 48.4032 623.983 47.2362 625.975 46.4657 628.174 46.1347 630.459L45.7016 632.336C45.3124 634.986 44.1992 637.477 42.4843 639.533 40.8858 641.074 38.7197 641.88 36.5035 641.761 33.7373 641.903 31.0779 640.676 29.3884 638.482 27.4933 635.704 26.5855 632.371 26.8105 629.015 26.8022 627.137 26.947 625.26 27.2436 623.406 27.5076 621.797 27.9431 620.219 28.5429 618.704Z" transform="matrix(1.00092 0 0 1 522.029 1054.95)"/><path d="M18.293 603.009 27.5736 603.009 27.5736 591.893 31.6982 591.893 31.6982 602.947 49.4963 602.947C51.2825 603.176 53.0932 602.791 54.6315 601.854 55.5676 600.569 55.9739 598.975 55.7658 597.4L55.7658 591.893 60.2617 591.893 60.2617 597.4C60.2617 601.524 59.4987 604.412 57.9519 606 56.4052 607.588 53.621 608.392 49.4963 608.392L31.7601 608.392 31.7601 612.352 27.6354 612.352 27.6354 608.392 18.293 608.392Z" transform="matrix(1.00092 0 0 1 522.029 1054.95)"/><path d="M32.5851 565.928C32.2357 566.576 31.9789 567.271 31.822 567.991 31.6496 568.762 31.5667 569.552 31.5745 570.342 31.4161 573.008 32.5151 575.596 34.5443 577.333 37.0115 579.115 40.0254 579.977 43.0618 579.767L60.2824 579.767 60.2824 585.17 27.5736 585.17 27.5736 579.767 32.6676 579.767C30.7933 578.756 29.2529 577.224 28.2335 575.353 27.2225 573.303 26.727 571.039 26.7899 568.754 26.7612 568.349 26.7612 567.941 26.7899 567.537 26.8338 567.038 26.9027 566.543 26.9961 566.052Z" transform="matrix(1.00092 0 0 1 522.029 1054.95)"/><path d="M43.8455 545.429C43.6114 548.516 44.1206 551.613 45.3304 554.462 46.4182 556.194 48.3878 557.167 50.4244 556.978 52.1429 557.048 53.8041 556.353 54.9615 555.08 56.1364 553.643 56.7322 551.82 56.632 549.966 56.7409 547.21 55.568 544.56 53.456 542.789 51.0793 540.883 48.0834 539.922 45.0416 540.087L43.8455 540.087ZM41.6181 534.704 60.2824 534.704 60.2824 540.087 55.3121 540.087C57.2187 541.151 58.7793 542.739 59.808 544.665 60.8167 546.759 61.3049 549.067 61.231 551.389 61.388 554.319 60.3712 557.192 58.4056 559.37 56.4293 561.393 53.6822 562.474 50.8574 562.34 47.6711 562.523 44.5943 561.146 42.6081 558.648 40.5098 555.369 39.5261 551.498 39.8033 547.615L39.8033 540.087 39.1846 540.087C36.9989 539.961 34.8794 540.86 33.4512 542.521 31.9837 544.492 31.2538 546.913 31.3889 549.368 31.3885 551.209 31.61 553.045 32.0488 554.833 32.5257 556.615 33.2184 558.333 34.1112 559.947L29.0584 559.947C28.3325 558.087 27.7668 556.169 27.3673 554.214 26.986 552.438 26.7923 550.628 26.7899 548.811 26.5061 544.938 27.8429 541.122 30.4815 538.272 32.9975 535.88 36.6479 534.704 41.6181 534.704Z" transform="matrix(1.00092 0 0 1 522.029 1054.95)"/><path d="M27.5736 523.65 27.5736 518.267 60.2824 518.267 60.2824 523.65ZM14.8489 523.65 14.8489 518.267 21.6546 518.267 21.6546 523.65Z" transform="matrix(1.00092 0 0 1 522.029 1054.95)"/><path d="M40.5457 479.825 60.2824 479.825 60.2824 485.208 40.7107 485.208C38.2631 485.022 35.8236 485.662 33.7812 487.023 32.1825 488.353 31.3225 490.372 31.4714 492.447 31.3417 495.031 32.352 497.541 34.2349 499.314 36.3488 501.08 39.0534 501.979 41.8037 501.831L60.3649 501.831 60.3649 507.337 27.5736 507.337 27.5736 501.934 32.6676 501.934C30.8449 500.808 29.3288 499.251 28.2541 497.396 27.2442 495.509 26.7466 493.389 26.8105 491.251 26.5706 488.021 27.8613 484.868 30.2959 482.733 33.2696 480.601 36.8947 479.572 40.5457 479.825Z" transform="matrix(1.00092 0 0 1 522.029 1054.95)"/><path d="M14.9108 437.217C19.0768 439.704 23.539 441.66 28.1923 443.033 36.8991 445.576 46.1516 445.576 54.8584 443.033 59.5203 441.645 63.9946 439.692 68.1811 437.217L68.1811 441.899C63.9636 444.629 59.4269 446.832 54.6728 448.457 46.1503 451.33 36.9209 451.33 28.3985 448.457 23.6469 446.832 19.1162 444.623 14.9108 441.878Z" transform="matrix(1.00092 0 0 1 522.029 1054.95)"/><path d="M42.6493 420.718C42.3655 422.496 41.4414 424.111 40.0508 425.256 39.1373 425.928 38.0292 426.283 36.8954 426.266 33.5999 426.283 30.5699 424.462 29.0378 421.543 27.4164 418.625 26.6449 415.309 26.8105 411.974 26.8159 410.421 26.94 408.868 27.1817 407.334 27.4321 405.606 27.7763 403.89 28.2129 402.199L33.1006 403.127C32.5865 404.742 32.1734 406.389 31.8632 408.056 31.6244 409.501 31.5003 410.964 31.492 412.428 31.4157 414.43 31.8787 416.418 32.8325 418.182 33.5282 419.766 35.0463 420.83 36.7716 420.945 37.8372 420.935 38.8272 420.393 39.4114 419.502 40.3219 418.011 40.747 416.274 40.6282 414.531L40.6282 409.994 45.0622 410.84 45.0622 415.171C44.9492 417.398 45.4636 419.613 46.5471 421.564 47.5558 423.501 49.5402 424.734 51.7236 424.781 53.0427 424.785 54.2785 424.138 55.0234 423.049 56.2521 421.092 56.8232 418.794 56.6526 416.491 56.6584 414.705 56.4858 412.923 56.137 411.17 55.7877 409.489 55.2407 407.856 54.5078 406.303L59.4987 407.293C60.0155 409.031 60.422 410.803 60.7155 412.593 60.9902 414.208 61.1281 415.843 61.1279 417.481 61.441 421.121 60.5024 424.759 58.4675 427.792 57.1371 429.446 55.1022 430.372 52.9817 430.288 50.0956 430.358 47.3337 429.114 45.4747 426.906 43.9735 425.148 42.9947 423.004 42.6493 420.718Z" transform="matrix(1.00092 0 0 1 522.029 1054.95)"/><path d="M14.9108 395.29 14.9108 390.629C19.112 387.882 23.644 385.679 28.3985 384.071 32.6261 382.648 37.0544 381.909 41.515 381.885 45.9891 381.911 50.4305 382.65 54.6728 384.071 59.4339 385.679 63.9727 387.882 68.1811 390.629L68.1811 395.29C63.9892 392.829 59.516 390.885 54.8584 389.495 46.1536 386.937 36.897 386.937 28.1923 389.495 23.5493 390.889 19.0903 392.834 14.9108 395.29Z" transform="matrix(1.00092 0 0 1 522.029 1054.95)"/><path d="M183.322 1158.67 183.322 37.5759" stroke="#000000" stroke-width="5.15586" stroke-linecap="square" fill="none" transform="matrix(1.00092 0 0 1 522.029 1054.95)"/><path d="M1334.11 1158.67 1334.11 37.5759" stroke="#000000" stroke-width="5.15586" stroke-linecap="square" fill="none" transform="matrix(1.00092 0 0 1 522.029 1054.95)"/><path d="M183.322 1158.67 1334.11 1158.67" stroke="#000000" stroke-width="5.15586" stroke-linecap="square" fill="none" transform="matrix(1.00092 0 0 1 522.029 1054.95)"/><path d="M183.322 37.5759 1334.11 37.5759" stroke="#000000" stroke-width="5.15586" stroke-linecap="square" fill="none" transform="matrix(1.00092 0 0 1 522.029 1054.95)"/><path d="M873.795 196.562 1287.87 196.562C1299.83 196.562 1305.82 190.581 1305.82 178.62L1305.82 120.73C1305.82 108.768 1299.83 102.787 1287.87 102.787L873.795 102.787C861.834 102.787 855.853 108.768 855.853 120.73L855.853 178.62C855.867 190.581 861.848 196.562 873.795 196.562Z" stroke="#000000" stroke-width="4.12469" fill="none" transform="matrix(1.00092 0 0 1 522.029 1054.95)"/><path d="M885.551 127.432 885.551 161.337 892.686 161.337C898.708 161.337 902.998 159.976 905.906 157.213 908.814 154.449 910.031 150.18 910.031 144.302 910.031 138.425 908.628 134.176 905.906 131.454 903.184 128.732 898.708 127.329 892.686 127.329ZM879.652 122.586 891.779 122.586C900.208 122.586 906.395 124.339 910.34 127.845 914.279 131.371 916.259 136.857 916.259 144.344 916.259 151.83 914.197 157.378 910.299 160.842 906.401 164.307 900.152 166.122 891.738 166.122L879.611 166.122Z" transform="matrix(1.00092 0 0 1 522.029 1054.95)"/><path d="M940.43 149.747C937.342 149.509 934.245 150.018 931.396 151.232 929.672 152.316 928.699 154.276 928.88 156.305 928.804 158.031 929.499 159.701 930.778 160.863 932.213 162.04 934.038 162.636 935.892 162.533 938.648 162.642 941.298 161.469 943.069 159.357 944.961 156.973 945.922 153.983 945.771 150.943L945.771 149.747ZM951.154 147.52 951.154 166.081 945.771 166.081 945.771 161.214C944.668 163.07 943.078 164.589 941.172 165.606 939.085 166.612 936.785 167.1 934.469 167.029 931.533 167.19 928.654 166.173 926.467 164.204 924.451 162.253 923.349 159.543 923.436 156.738 923.242 153.55 924.62 150.468 927.127 148.489 930.398 146.388 934.263 145.404 938.14 145.684L945.688 145.684 945.688 145.148C945.814 142.962 944.915 140.843 943.255 139.415 941.292 137.932 938.864 137.201 936.408 137.352 934.56 137.353 932.718 137.575 930.922 138.012 929.146 138.488 927.435 139.181 925.828 140.075L925.828 134.96C927.68 134.234 929.592 133.668 931.541 133.269 933.317 132.888 935.127 132.695 936.944 132.691 940.844 132.389 944.694 133.727 947.565 136.383 949.902 138.816 951.071 142.529 951.071 147.52Z" transform="matrix(1.00092 0 0 1 522.029 1054.95)"/><path d="M987.595 139.765C988.709 137.588 990.373 135.739 992.421 134.403 994.411 133.23 996.69 132.636 999 132.691 1002.06 132.529 1005.01 133.868 1006.9 136.28 1008.92 139.26 1009.9 142.831 1009.66 146.427L1009.66 166.163 1004.36 166.163 1004.36 146.612C1004.55 144.168 1003.95 141.729 1002.67 139.641 1001.48 138.071 999.565 137.216 997.598 137.373 995.092 137.242 992.663 138.259 990.998 140.136 989.293 142.278 988.435 144.972 988.585 147.705L988.585 166.266 983.182 166.266 983.182 146.612C983.366 144.165 982.782 141.721 981.511 139.621 980.28 138.063 978.356 137.22 976.376 137.373 973.84 137.255 971.389 138.313 969.735 140.24 968.022 142.341 967.135 144.996 967.24 147.705L967.24 166.266 961.837 166.266 961.837 133.475 967.24 133.475 967.24 138.569C968.312 136.691 969.863 135.133 971.736 134.052 973.639 133.048 975.772 132.558 977.923 132.629 980.086 132.562 982.215 133.199 983.986 134.444 985.712 135.8 986.975 137.66 987.595 139.765Z" transform="matrix(1.00092 0 0 1 522.029 1054.95)"/><path d="M1035.3 149.747C1032.21 149.509 1029.11 150.018 1026.26 151.232 1024.54 152.316 1023.57 154.276 1023.75 156.305 1023.66 158.024 1024.34 159.693 1025.6 160.863 1027.04 162.038 1028.86 162.634 1030.72 162.533 1033.47 162.642 1036.12 161.469 1037.9 159.357 1039.79 156.973 1040.75 153.983 1040.6 150.943L1040.6 149.747ZM1046.02 147.52 1046.02 166.081 1040.64 166.081 1040.64 161.214C1039.54 163.068 1037.96 164.588 1036.06 165.606 1033.97 166.615 1031.66 167.103 1029.34 167.029 1026.4 167.185 1023.52 166.169 1021.34 164.204 1019.33 162.246 1018.25 159.536 1018.34 156.738 1018.15 153.55 1019.53 150.468 1022.04 148.489 1025.31 146.391 1029.17 145.407 1033.05 145.684L1040.6 145.684 1040.6 145.148C1040.72 142.962 1039.82 140.843 1038.16 139.415 1036.2 137.932 1033.77 137.201 1031.32 137.352 1029.48 137.352 1027.64 137.573 1025.85 138.012 1024.07 138.484 1022.35 139.177 1020.74 140.075L1020.74 134.96C1022.59 134.234 1024.5 133.668 1026.45 133.269 1028.23 132.888 1030.04 132.695 1031.85 132.691 1035.75 132.389 1039.6 133.727 1042.47 136.383 1044.81 138.816 1045.98 142.529 1045.98 147.52Z" transform="matrix(1.00092 0 0 1 522.029 1054.95)"/><path d="M1078.61 149.438C1078.8 146.244 1077.96 143.074 1076.19 140.404 1073.17 136.68 1067.71 136.109 1063.98 139.129 1063.51 139.509 1063.09 139.936 1062.71 140.404 1060.94 143.074 1060.1 146.244 1060.29 149.438 1060.1 152.63 1060.95 155.8 1062.71 158.471 1065.73 162.195 1071.19 162.766 1074.92 159.746 1075.39 159.366 1075.81 158.939 1076.19 158.471 1077.95 155.8 1078.8 152.63 1078.61 149.438ZM1083.97 162.121C1083.97 167.621 1082.73 171.745 1080.26 174.495 1077.8 177.197 1074.07 178.62 1068.91 178.62 1067.12 178.624 1065.33 178.486 1063.55 178.207 1061.89 177.923 1060.26 177.488 1058.68 176.908L1058.68 171.67C1060.16 172.491 1061.73 173.129 1063.37 173.567 1064.89 173.979 1066.47 174.187 1068.05 174.186 1070.96 174.408 1073.83 173.406 1075.97 171.422 1077.87 169.113 1078.82 166.159 1078.61 163.173L1078.61 160.43C1077.61 162.24 1076.13 163.738 1074.34 164.761 1072.43 165.747 1070.3 166.236 1068.15 166.184 1064.37 166.292 1060.77 164.591 1058.46 161.605 1055.86 158.097 1054.56 153.796 1054.79 149.438 1054.56 145.079 1055.86 140.778 1058.46 137.27 1060.77 134.284 1064.37 132.583 1068.15 132.691 1070.3 132.639 1072.43 133.128 1074.34 134.114 1076.13 135.137 1077.61 136.636 1078.61 138.445L1078.61 133.475 1083.97 133.475Z" transform="matrix(1.00092 0 0 1 522.029 1054.95)"/><path d="M1122.97 148.489 1122.97 151.108 1098.22 151.108C1098.23 154.251 1099.43 157.274 1101.58 159.564 1103.84 161.589 1106.8 162.635 1109.83 162.472 1111.86 162.48 1113.87 162.223 1115.83 161.709 1117.84 161.182 1119.78 160.42 1121.61 159.44L1121.61 164.513C1119.69 165.328 1117.7 165.956 1115.67 166.39 1113.63 166.821 1111.56 167.036 1109.48 167.029 1100.84 167.752 1093.25 161.335 1092.53 152.698 1092.46 151.846 1092.46 150.99 1092.53 150.139 1092.28 145.498 1093.83 140.941 1096.86 137.414 1099.88 134.204 1104.15 132.478 1108.55 132.691 1112.49 132.503 1116.3 134.057 1118.99 136.94 1121.74 140.138 1123.17 144.272 1122.97 148.489ZM1117.61 146.901C1117.69 144.33 1116.8 141.822 1115.13 139.868 1113.49 138.107 1111.16 137.151 1108.76 137.249 1106.12 137.119 1103.53 138.03 1101.56 139.786 1099.66 141.697 1098.55 144.251 1098.45 146.942Z" transform="matrix(1.00092 0 0 1 522.029 1054.95)"/><path d="M1148.48 133.475 1173.99 133.475 1173.99 138.383 1153.78 161.894 1173.99 161.894 1173.99 166.184 1147.74 166.184 1147.74 161.275 1167.95 137.765 1148.48 137.765Z" transform="matrix(1.00092 0 0 1 522.029 1054.95)"/><path d="M1194.86 137.249C1192.17 137.162 1189.61 138.422 1188.03 140.611 1186.22 143.34 1185.34 146.58 1185.52 149.85 1185.35 153.123 1186.22 156.367 1188.01 159.11 1190.9 162.88 1196.3 163.595 1200.07 160.706 1200.67 160.246 1201.21 159.71 1201.67 159.11 1203.48 156.384 1204.37 153.142 1204.18 149.871 1204.36 146.613 1203.48 143.384 1201.67 140.673 1200.12 138.455 1197.56 137.168 1194.86 137.249ZM1194.86 132.691C1199.03 132.48 1203.07 134.153 1205.87 137.249 1208.73 140.805 1210.17 145.296 1209.9 149.85 1210.15 154.409 1208.72 158.902 1205.87 162.472 1199.79 168.545 1189.93 168.545 1183.85 162.472 1181.02 158.896 1179.6 154.403 1179.87 149.85 1179.59 145.312 1180.98 140.828 1183.79 137.249 1186.6 134.136 1190.67 132.461 1194.86 132.691Z" transform="matrix(1.00092 0 0 1 522.029 1054.95)"/><path d="M1245.99 146.427 1245.99 166.163 1240.6 166.163 1240.6 146.612C1240.79 144.158 1240.15 141.713 1238.79 139.662 1237.43 138.049 1235.38 137.195 1233.28 137.373 1230.71 137.286 1228.23 138.334 1226.5 140.24 1224.73 142.353 1223.83 145.058 1223.98 147.808L1223.98 166.369 1218.58 166.369 1218.58 133.475 1223.98 133.475 1223.98 138.569C1225.11 136.751 1226.67 135.236 1228.52 134.156 1230.37 133.161 1232.46 132.657 1234.56 132.691 1237.78 132.436 1240.93 133.703 1243.08 136.115 1245.23 139.105 1246.25 142.755 1245.99 146.427Z" transform="matrix(1.00092 0 0 1 522.029 1054.95)"/><path d="M1284.68 148.489 1284.68 151.108 1259.93 151.108C1259.93 154.248 1261.12 157.271 1263.27 159.564 1265.53 161.583 1268.49 162.628 1271.52 162.472 1273.54 162.48 1275.56 162.223 1277.52 161.709 1279.53 161.186 1281.47 160.424 1283.29 159.44L1283.29 164.513C1281.39 165.33 1279.4 165.959 1277.38 166.39 1275.34 166.82 1273.27 167.035 1271.19 167.029 1262.53 167.738 1254.93 161.292 1254.22 152.63 1254.15 151.801 1254.15 150.968 1254.22 150.139 1253.97 145.498 1255.52 140.941 1258.55 137.414 1261.61 134.166 1265.95 132.438 1270.4 132.691 1274.34 132.503 1278.16 134.057 1280.84 136.94 1283.54 140.16 1284.92 144.291 1284.68 148.489ZM1279.29 146.901C1279.4 144.33 1278.52 141.816 1276.84 139.868 1275.19 138.102 1272.86 137.145 1270.45 137.249 1267.81 137.124 1265.22 138.034 1263.25 139.786 1261.36 141.699 1260.25 144.253 1260.16 146.942Z" transform="matrix(1.00092 0 0 1 522.029 1054.95)"/><path d="M988.874 757.108 1283.03 757.108C1294.99 757.108 1300.97 751.127 1300.97 739.165L1300.97 681.275C1300.97 669.314 1294.99 663.333 1283.03 663.333L988.874 663.333C976.912 663.333 970.932 669.314 970.932 681.275L970.932 739.165C970.932 751.127 976.912 757.108 988.874 757.108Z" stroke="#000000" stroke-width="4.12469" fill="none" transform="matrix(1.00092 0 0 1 522.029 1054.95)"/><path d="M1020.86 684.554 1020.86 690.308C1018.82 689.318 1016.7 688.518 1014.51 687.916 1012.63 687.4 1010.7 687.136 1008.76 687.132 1006.15 686.976 1003.56 687.623 1001.33 688.988 999.609 690.201 998.623 692.206 998.711 694.309 998.594 695.955 999.231 697.564 1000.44 698.681 1002.43 699.983 1004.69 700.795 1007.04 701.053L1010.59 701.796C1014.21 702.258 1017.61 703.794 1020.35 706.209 1022.49 708.494 1023.62 711.552 1023.48 714.685 1023.71 718.395 1022.13 721.986 1019.23 724.316 1015.57 726.711 1011.23 727.855 1006.86 727.575 1004.65 727.562 1002.44 727.327 1000.28 726.874 997.816 726.375 995.395 725.686 993.04 724.811L993.04 718.727C995.249 720.016 997.594 721.054 1000.03 721.821 1002.23 722.489 1004.5 722.836 1006.8 722.852 1009.54 722.994 1012.27 722.273 1014.59 720.79 1017.75 718.263 1018.26 713.656 1015.73 710.499 1015.62 710.356 1015.5 710.22 1015.38 710.086 1013.48 708.647 1011.25 707.717 1008.9 707.385L1005.31 706.683C1001.81 706.223 998.499 704.794 995.762 702.559 993.727 700.49 992.656 697.661 992.813 694.763 992.675 691.245 994.203 687.867 996.938 685.647 1000.18 683.261 1004.16 682.086 1008.18 682.327 1010.25 682.335 1012.32 682.521 1014.36 682.884 1016.57 683.278 1018.74 683.837 1020.86 684.554Z" transform="matrix(1.00092 0 0 1 522.029 1054.95)"/><path d="M1047.34 710.292C1044.25 710.055 1041.16 710.565 1038.31 711.777 1036.58 712.862 1035.61 714.821 1035.79 716.851 1035.71 718.573 1036.4 720.243 1037.67 721.408 1039.11 722.586 1040.94 723.182 1042.8 723.079 1045.56 723.178 1048.2 722.007 1049.98 719.903 1051.87 717.519 1052.83 714.528 1052.68 711.489L1052.68 710.292ZM1058.05 708.065 1058.05 726.729 1052.68 726.729 1052.68 721.821C1051.58 723.677 1049.99 725.197 1048.08 726.214 1045.99 727.222 1043.68 727.711 1041.36 727.637 1038.43 727.793 1035.56 726.777 1033.38 724.811 1029.2 720.303 1029.46 713.256 1033.97 709.074 1034.01 709.032 1034.06 708.991 1034.1 708.952 1037.38 706.854 1041.25 705.871 1045.13 706.147L1052.68 706.147 1052.68 705.611C1052.8 703.423 1051.89 701.303 1050.23 699.878 1048.27 698.395 1045.84 697.665 1043.38 697.815 1041.54 697.815 1039.7 698.038 1037.92 698.475 1036.14 698.947 1034.43 699.64 1032.82 700.537L1032.82 695.567C1034.67 694.839 1036.59 694.272 1038.54 693.876 1040.31 693.497 1042.12 693.303 1043.94 693.299 1047.83 692.991 1051.68 694.332 1054.54 696.99 1056.89 699.362 1057.98 703.074 1057.98 708.065Z" transform="matrix(1.00092 0 0 1 522.029 1054.95)"/><path d="M1085.68 681.275 1085.68 685.751 1080.52 685.751C1079.09 685.594 1077.65 686.017 1076.52 686.926 1075.65 688.114 1075.25 689.582 1075.39 691.051L1075.39 693.938 1084.24 693.938 1084.24 698.063 1075.39 698.063 1075.39 726.585 1069.99 726.585 1069.99 698.207 1064.85 698.207 1064.85 694.082 1069.99 694.082 1069.99 691.793C1069.73 688.91 1070.65 686.043 1072.54 683.853 1074.79 681.989 1077.68 681.085 1080.59 681.337Z" transform="matrix(1.00092 0 0 1 522.029 1054.95)"/><path d="M1118.14 709.034 1118.14 711.654 1093.39 711.654C1093.41 714.79 1094.6 717.81 1096.73 720.109 1099.02 722.153 1102.03 723.199 1105.09 723.017 1107.11 723.025 1109.13 722.77 1111.09 722.254 1113.1 721.728 1115.03 720.965 1116.86 719.985L1116.86 725.059C1114.95 725.873 1112.96 726.502 1110.92 726.936 1108.89 727.367 1106.82 727.581 1104.74 727.575 1096.07 728.284 1088.48 721.837 1087.77 713.176 1087.7 712.346 1087.7 711.513 1087.76 710.684 1087.51 706.04 1089.07 701.478 1092.11 697.96 1095.13 694.751 1099.41 693.024 1103.81 693.237 1107.74 693.049 1111.56 694.602 1114.24 697.485 1116.97 700.696 1118.36 704.827 1118.14 709.034ZM1112.78 707.446C1112.86 704.875 1111.98 702.367 1110.3 700.414 1108.67 698.653 1106.34 697.696 1103.93 697.795 1101.29 697.663 1098.71 698.574 1096.73 700.331 1094.83 702.237 1093.72 704.794 1093.62 707.488Z" transform="matrix(1.00092 0 0 1 522.029 1054.95)"/><path d="M1143.63 694.021 1169.16 694.021 1169.16 698.929 1148.95 722.44 1169.16 722.44 1169.16 726.729 1142.91 726.729 1142.91 721.821 1163.12 698.31 1143.63 698.31Z" transform="matrix(1.00092 0 0 1 522.029 1054.95)"/><path d="M1189.97 697.795C1187.28 697.704 1184.72 698.966 1183.15 701.156 1181.34 703.885 1180.45 707.125 1180.63 710.396 1180.46 713.668 1181.33 716.913 1183.13 719.656 1186.02 723.425 1191.41 724.139 1195.18 721.252 1195.78 720.792 1196.32 720.256 1196.78 719.656 1200.13 713.967 1200.13 706.906 1196.78 701.218 1195.23 699.001 1192.68 697.714 1189.97 697.795ZM1189.97 693.237C1194.14 693.024 1198.19 694.699 1200.99 697.795 1206.32 705.357 1206.32 715.454 1200.99 723.017 1194.9 729.091 1185.05 729.091 1178.96 723.017 1173.65 715.448 1173.65 705.363 1178.96 697.795 1181.76 694.699 1185.81 693.024 1189.97 693.237Z" transform="matrix(1.00092 0 0 1 522.029 1054.95)"/><path d="M1241.16 706.993 1241.16 726.729 1235.78 726.729 1235.78 707.158C1235.96 704.703 1235.32 702.26 1233.96 700.208 1232.63 698.62 1230.61 697.768 1228.54 697.918 1225.96 697.78 1223.44 698.793 1221.67 700.682 1219.91 702.796 1219.01 705.5 1219.16 708.251L1219.16 726.812 1213.75 726.812 1213.75 694.021 1219.16 694.021 1219.16 699.135C1220.29 697.318 1221.84 695.802 1223.69 694.722 1225.55 693.721 1227.63 693.218 1229.74 693.257 1232.97 693.018 1236.12 694.309 1238.25 696.743 1240.39 699.717 1241.41 703.342 1241.16 706.993Z" transform="matrix(1.00092 0 0 1 522.029 1054.95)"/><path d="M1279.85 709.034 1279.85 711.654 1255.1 711.654C1255.1 714.794 1256.3 717.816 1258.44 720.109 1260.7 722.132 1263.67 723.178 1266.69 723.017 1268.72 723.025 1270.73 722.77 1272.69 722.254 1274.7 721.728 1276.64 720.965 1278.47 719.985L1278.47 725.059C1276.55 725.875 1274.56 726.505 1272.53 726.936 1270.5 727.369 1268.42 727.583 1266.34 727.575 1257.7 728.309 1250.11 721.901 1249.38 713.266 1249.3 712.406 1249.3 711.544 1249.37 710.684 1249.12 706.044 1250.67 701.486 1253.7 697.96 1256.72 694.751 1260.99 693.024 1265.39 693.237 1269.33 693.047 1273.16 694.602 1275.85 697.485 1278.61 700.68 1280.04 704.815 1279.85 709.034ZM1274.53 707.385C1274.62 704.817 1273.74 702.309 1272.08 700.352 1270.43 698.584 1268.09 697.628 1265.68 697.733 1263.04 697.607 1260.46 698.518 1258.48 700.269 1256.59 702.185 1255.48 704.736 1255.37 707.426Z" transform="matrix(1.00092 0 0 1 522.029 1054.95)"/></g></g><path d="M953.5 1405.5 1670.79 2038.57" stroke="#1D404C" stroke-width="4.58333" stroke-miterlimit="8" fill="none" fill-rule="evenodd"/><rect x="1079" y="1515" width="26.9998" height="26.0001" fill="#FF0000"/><path d="M0 0 0.000360892 690.861" stroke="#FF0000" stroke-width="4.58333" stroke-miterlimit="8" stroke-dasharray="18.3333 13.75" fill="none" fill-rule="evenodd" transform="matrix(-1 0 0 1 1090.5 1516.5)"/><path d="M1001 1458C1001 1450.82 1006.82 1445 1014 1445 1021.18 1445 1027 1450.82 1027 1458 1027 1465.18 1021.18 1471 1014 1471 1006.82 1471 1001 1465.18 1001 1458Z" fill="#1D404C" fill-rule="evenodd"/><path d="M1309 1731C1309 1723.82 1314.82 1718 1322 1718 1329.18 1718 1335 1723.82 1335 1731 1335 1738.18 1329.18 1744 1322 1744 1314.82 1744 1309 1738.18 1309 1731Z" fill="#1D404C" fill-rule="evenodd"/><path d="M1613 1999C1613 1991.82 1618.82 1986 1626 1986 1633.18 1986 1639 1991.82 1639 1999 1639 2006.18 1633.18 2012 1626 2012 1618.82 2012 1613 2006.18 1613 1999Z" fill="#1D404C" fill-rule="evenodd"/></g></svg>