<svg width="653" height="311" xmlns="http://www.w3.org/2000/svg" xmlns:xlink="http://www.w3.org/1999/xlink" xml:space="preserve" overflow="hidden"><defs><clipPath id="clip0"><rect x="0" y="0" width="653" height="311"/></clipPath></defs><g clip-path="url(#clip0)"><path d="M4.08817 312.606 4.58072 144.071 135.55 144.071 191.684 194.738 347.905 194.738 404.039 144.071 532.07 144.071 532.07 312.606 404.532 312.606 346.575 261.939 192.423 261.939 134.762 312.31 4.08817 312.606 4.08817 312.606Z" fill="#E6E6E6" transform="matrix(1 0 0 1.00007 0 -31.9473)"/><path d="M0.837336 143.989 39.7489 143.989 91.6309 143.989" stroke="#7C7C7C" stroke-width="6.56734" stroke-linejoin="round" fill="none" transform="matrix(1 0 0 1.00007 0 -31.9473)"/><path d="M230.891 194.64 186.595 194.64 130.427 143.989 79.7604 143.989" stroke="#35D353" stroke-width="6.56734" stroke-linejoin="round" fill="none" transform="matrix(1 0 0 1.00007 0 -31.9473)"/><path d="M0.344786 312.507 3.28367 312.507 91.1547 312.507" stroke="#7C7C7C" stroke-width="6.56734" stroke-linejoin="round" fill="none" transform="matrix(1 0 0 1.00007 0 -31.9473)"/><path d="M230.415 261.856 186.102 261.856 129.935 312.507 79.2843 312.507" stroke="#35D353" stroke-width="6.56734" stroke-linejoin="round" fill="none" transform="matrix(1 0 0 1.00007 0 -31.9473)"/><path d="M437.878 143.989 525.749 143.989 528.688 143.989" stroke="#7C7C7C" stroke-width="6.56734" stroke-linejoin="round" fill="none" transform="matrix(1 0 0 1.00007 0 -31.9473)"/><path d="M298.617 194.64 342.914 194.64 399.081 143.989 449.748 143.989" stroke="#7C7C7C" stroke-width="6.56734" stroke-linejoin="round" fill="none" transform="matrix(1 0 0 1.00007 0 -31.9473)"/><path d="M529.164 312.507 526.241 312.507 438.37 312.507" stroke="#7C7C7C" stroke-width="6.56734" stroke-linejoin="round" fill="none" transform="matrix(1 0 0 1.00007 0 -31.9473)"/><path d="M450.241 312.507 399.574 312.507 343.406 261.856 299.11 261.856 230.415 261.856" stroke="#7C7C7C" stroke-width="6.56734" stroke-linejoin="round" fill="none" transform="matrix(1 0 0 1.00007 0 -31.9473)"/><path d="M298.863 194.64 230.645 194.64" stroke="#7C7C7C" stroke-width="6.56734" stroke-linejoin="round" fill="none" transform="matrix(1 0 0 1.00007 0 -31.9473)"/><path d="M86.2831 170.994C102.015 186.86 101.877 212.507 85.9735 228.279 70.0703 244.05 44.4246 243.974 28.6923 228.108 12.96 212.243 13.0986 186.595 29.0019 170.824 44.9052 155.052 70.5509 155.128 86.2831 170.994Z" stroke="#EA7C00" stroke-width="4.10473" stroke-miterlimit="10" fill="none"/><path d="M377.146 261.265C377.245 275.27 329.812 283.627 318.943 291.574 311.522 296.499 281.181 283.2 280.541 261.873 280.393 242.368 309.043 223.946 319.846 232.123 327.546 239.708 375.537 251.037 377.146 261.265Z" stroke="#EA7C00" stroke-width="4.10459" stroke-miterlimit="10" fill="none" transform="matrix(1 0 0 1.00007 -137.29 -65.6565)"/><path d="M130.641 199.089C130.641 200.313 129.649 201.306 128.424 201.306 127.2 201.306 126.208 200.313 126.208 199.089 126.208 197.865 127.2 196.873 128.424 196.873 129.649 196.873 130.641 197.865 130.641 199.089Z" stroke="#EF9616" stroke-width="0.410459" stroke-miterlimit="10" stroke-dasharray="14.7765 14.7765" fill="#F7B15E" transform="matrix(1 0 0 1.00007 0 -31.9473)"/><path d="M27.3694 164.118C27.3694 165.342 26.3771 166.334 25.1529 166.334 23.9288 166.334 22.9365 165.342 22.9365 164.118 22.9365 162.894 23.9288 161.901 25.1529 161.901 26.3771 161.901 27.3694 162.894 27.3694 164.118Z" stroke="#EF9616" stroke-width="0.410459" stroke-miterlimit="10" stroke-dasharray="14.7765 14.7765" fill="#F7B15E" transform="matrix(1 0 0 1.00007 0 -31.9473)"/><path d="M130.641 161.146C130.641 162.37 129.649 163.363 128.424 163.363 127.2 163.363 126.208 162.37 126.208 161.146 126.208 159.922 127.2 158.93 128.424 158.93 129.649 158.93 130.641 159.922 130.641 161.146Z" stroke="#EF9616" stroke-width="0.410459" stroke-miterlimit="10" stroke-dasharray="14.7765 14.7765" fill="#F7B15E" transform="matrix(1 0 0 1.00007 0 -31.9473)"/><path d="M74.8185 161.146C74.8185 162.37 73.8261 163.363 72.602 163.363 71.3779 163.363 70.3855 162.37 70.3855 161.146 70.3855 159.922 71.3779 158.93 72.602 158.93 73.8261 158.93 74.8185 159.922 74.8185 161.146Z" stroke="#EF9616" stroke-width="0.410459" stroke-miterlimit="10" stroke-dasharray="14.7765 14.7765" fill="#F7B15E" transform="matrix(1 0 0 1.00007 0 -31.9473)"/><path d="M11.2794 300.275C11.2794 301.5 10.2871 302.492 9.06294 302.492 7.83881 302.492 6.84646 301.5 6.84646 300.275 6.84646 299.051 7.83881 298.059 9.06294 298.059 10.2871 298.059 11.2794 299.051 11.2794 300.275Z" stroke="#EF9616" stroke-width="0.410459" stroke-miterlimit="10" stroke-dasharray="14.7765 14.7765" fill="#F7B15E" transform="matrix(1 0 0 1.00007 0 -31.9473)"/><path d="M126.783 242.089C126.783 243.313 125.79 244.305 124.566 244.305 123.342 244.305 122.35 243.313 122.35 242.089 122.35 240.865 123.342 239.872 124.566 239.872 125.79 239.872 126.783 240.865 126.783 242.089Z" stroke="#EF9616" stroke-width="0.410459" stroke-miterlimit="10" stroke-dasharray="14.7765 14.7765" fill="#F7B15E" transform="matrix(1 0 0 1.00007 0 -31.9473)"/><path d="M106.801 263.859C106.801 265.084 105.809 266.076 104.585 266.076 103.361 266.076 102.368 265.084 102.368 263.859 102.368 262.635 103.361 261.643 104.585 261.643 105.809 261.643 106.801 262.635 106.801 263.859Z" stroke="#EF9616" stroke-width="0.410459" stroke-miterlimit="10" stroke-dasharray="14.7765 14.7765" fill="#F7B15E" transform="matrix(1 0 0 1.00007 0 -31.9473)"/><path d="M147.7 269.901C147.7 271.126 146.707 272.118 145.483 272.118 144.259 272.118 143.267 271.126 143.267 269.901 143.267 268.677 144.259 267.685 145.483 267.685 146.707 267.685 147.7 268.677 147.7 269.901Z" stroke="#EF9616" stroke-width="0.410459" stroke-miterlimit="10" stroke-dasharray="14.7765 14.7765" fill="#F7B15E" transform="matrix(1 0 0 1.00007 0 -31.9473)"/><path d="M272.512 214.013C272.512 215.237 271.52 216.23 270.295 216.23 269.071 216.23 268.079 215.237 268.079 214.013 268.079 212.789 269.071 211.797 270.295 211.797 271.52 211.797 272.512 212.789 272.512 214.013Z" stroke="#EF9616" stroke-width="0.410459" stroke-miterlimit="10" stroke-dasharray="14.7765 14.7765" fill="#F7B15E" transform="matrix(1 0 0 1.00007 0 -31.9473)"/><path d="M273.809 247.884C273.809 249.109 272.817 250.101 271.593 250.101 270.368 250.101 269.376 249.109 269.376 247.884 269.376 246.66 270.368 245.668 271.593 245.668 272.817 245.668 273.809 246.66 273.809 247.884Z" stroke="#EF9616" stroke-width="0.410459" stroke-miterlimit="10" stroke-dasharray="14.7765 14.7765" fill="#F7B15E" transform="matrix(1 0 0 1.00007 0 -31.9473)"/><path d="M322.998 227.903C322.998 229.127 322.006 230.12 320.782 230.12 319.558 230.12 318.565 229.127 318.565 227.903 318.565 226.679 319.558 225.687 320.782 225.687 322.006 225.687 322.998 226.679 322.998 227.903Z" stroke="#EF9616" stroke-width="0.410459" stroke-miterlimit="10" stroke-dasharray="14.7765 14.7765" fill="#F7B15E" transform="matrix(1 0 0 1.00007 0 -31.9473)"/><path d="M370.152 196.856C370.152 198.08 369.16 199.073 367.935 199.073 366.711 199.073 365.719 198.08 365.719 196.856 365.719 195.632 366.711 194.64 367.935 194.64 369.16 194.64 370.152 195.632 370.152 196.856Z" stroke="#EF9616" stroke-width="0.410459" stroke-miterlimit="10" stroke-dasharray="14.7765 14.7765" fill="#F7B15E" transform="matrix(1 0 0 1.00007 0 -31.9473)"/><path d="M379.724 256.685C379.724 257.909 378.732 258.901 377.507 258.901 376.283 258.901 375.291 257.909 375.291 256.685 375.291 255.461 376.283 254.468 377.507 254.468 378.732 254.468 379.724 255.461 379.724 256.685Z" stroke="#EF9616" stroke-width="0.410459" stroke-miterlimit="10" stroke-dasharray="14.7765 14.7765" fill="#F7B15E" transform="matrix(1 0 0 1.00007 0 -31.9473)"/><path d="M404.138 178.763C404.138 179.987 403.146 180.98 401.921 180.98 400.697 180.98 399.705 179.987 399.705 178.763 399.705 177.539 400.697 176.547 401.921 176.547 403.146 176.547 404.138 177.539 404.138 178.763Z" stroke="#EF9616" stroke-width="0.410459" stroke-miterlimit="10" stroke-dasharray="14.7765 14.7765" fill="#F7B15E" transform="matrix(1 0 0 1.00007 0 -31.9473)"/><path d="M507.327 296.417C507.327 297.641 506.335 298.634 505.111 298.634 503.887 298.634 502.894 297.641 502.894 296.417 502.894 295.193 503.887 294.201 505.111 294.201 506.335 294.201 507.327 295.193 507.327 296.417Z" stroke="#EF9616" stroke-width="0.410459" stroke-miterlimit="10" stroke-dasharray="14.7765 14.7765" fill="#F7B15E" transform="matrix(1 0 0 1.00007 0 -31.9473)"/><path d="M411.838 303.067C411.838 304.291 410.846 305.283 409.622 305.283 408.398 305.283 407.405 304.291 407.405 303.067 407.405 301.842 408.398 300.85 409.622 300.85 410.846 300.85 411.838 301.842 411.838 303.067Z" stroke="#EF9616" stroke-width="0.410459" stroke-miterlimit="10" stroke-dasharray="14.7765 14.7765" fill="#F7B15E" transform="matrix(1 0 0 1.00007 0 -31.9473)"/><path d="M499.036 255.223C499.036 256.448 498.044 257.44 496.82 257.44 495.596 257.44 494.603 256.448 494.603 255.223 494.603 253.999 495.595 253.007 496.82 253.007 498.044 253.007 499.036 253.999 499.036 255.223Z" stroke="#EF9616" stroke-width="0.410459" stroke-miterlimit="10" stroke-dasharray="14.7765 14.7765" fill="#F7B15E" transform="matrix(1 0 0 1.00007 0 -31.9473)"/><path d="M472.964 300.85C472.964 302.074 471.971 303.067 470.747 303.067 469.523 303.067 468.531 302.074 468.531 300.85 468.531 299.626 469.523 298.634 470.747 298.634 471.971 298.634 472.964 299.626 472.964 300.85Z" stroke="#EF9616" stroke-width="0.410459" stroke-miterlimit="10" stroke-dasharray="14.7765 14.7765" fill="#F7B15E" transform="matrix(1 0 0 1.00007 0 -31.9473)"/><path d="M509.544 158.93C509.544 160.154 508.552 161.146 507.327 161.146 506.103 161.146 505.111 160.154 505.111 158.93 505.111 157.706 506.103 156.713 507.327 156.713 508.551 156.713 509.544 157.706 509.544 158.93Z" stroke="#EF9616" stroke-width="0.410459" stroke-miterlimit="10" stroke-dasharray="14.7765 14.7765" fill="#F7B15E" transform="matrix(1 0 0 1.00007 0 -31.9473)"/><path d="M515.553 214.013C515.553 215.237 514.561 216.23 513.336 216.23 512.112 216.23 511.12 215.237 511.12 214.013 511.12 212.789 512.112 211.797 513.336 211.797 514.561 211.797 515.553 212.789 515.553 214.013Z" stroke="#EF9616" stroke-width="0.410459" stroke-miterlimit="10" stroke-dasharray="14.7765 14.7765" fill="#F7B15E" transform="matrix(1 0 0 1.00007 0 -31.9473)"/><path d="M453.508 158.93C453.508 160.154 452.516 161.146 451.292 161.146 450.067 161.146 449.075 160.154 449.075 158.93 449.075 157.706 450.067 156.713 451.292 156.713 452.516 156.713 453.508 157.706 453.508 158.93Z" stroke="#EF9616" stroke-width="0.410459" stroke-miterlimit="10" stroke-dasharray="14.7765 14.7765" fill="#F7B15E" transform="matrix(1 0 0 1.00007 0 -31.9473)"/><path d="M465.283 160.851C481.016 176.717 480.877 202.364 464.974 218.136 449.07 233.907 423.425 233.831 407.692 217.965 391.96 202.1 392.099 176.452 408.002 160.681 423.905 144.909 449.551 144.985 465.283 160.851Z" stroke="#EA7C00" stroke-width="4.10473" stroke-miterlimit="10" stroke-dasharray="14.1367 14.1367" fill="none"/><path d="M436.482 192.423C436.482 193.647 435.49 194.64 434.266 194.64 433.042 194.64 432.049 193.647 432.049 192.423 432.049 191.199 433.042 190.207 434.266 190.207 435.49 190.207 436.482 191.199 436.482 192.423Z" stroke="#EF9616" stroke-width="0.410459" stroke-miterlimit="10" stroke-dasharray="14.7765 14.7765" fill="#F7B15E" transform="matrix(1 0 0 1.00007 0 -31.9473)"/><path d="M467.119 214.013C467.119 215.237 466.126 216.23 464.902 216.23 463.678 216.23 462.686 215.237 462.686 214.013 462.686 212.789 463.678 211.797 464.902 211.797 466.126 211.797 467.119 212.789 467.119 214.013Z" stroke="#EF9616" stroke-width="0.410459" stroke-miterlimit="10" stroke-dasharray="14.7765 14.7765" fill="#F7B15E" transform="matrix(1 0 0 1.00007 0 -31.9473)"/><path d="M414.055 220.039C414.055 221.263 413.062 222.255 411.838 222.255 410.614 222.255 409.622 221.263 409.622 220.039 409.622 218.815 410.614 217.822 411.838 217.822 413.062 217.822 414.055 218.815 414.055 220.039Z" stroke="#EF9616" stroke-width="0.410459" stroke-miterlimit="10" stroke-dasharray="14.7765 14.7765" fill="#F7B15E" transform="matrix(1 0 0 1.00007 0 -31.9473)"/><path d="M444.33 216.23C444.33 217.454 443.338 218.446 442.114 218.446 440.89 218.446 439.897 217.454 439.897 216.23 439.897 215.006 440.889 214.013 442.114 214.013 443.338 214.013 444.33 215.006 444.33 216.23Z" stroke="#EF9616" stroke-width="0.410459" stroke-miterlimit="10" stroke-dasharray="14.7765 14.7765" fill="#F7B15E" transform="matrix(1 0 0 1.00007 0 -31.9473)"/><path d="M442.803 234.668C442.803 235.892 441.811 236.884 440.587 236.884 439.363 236.884 438.37 235.892 438.37 234.668 438.37 233.443 439.363 232.451 440.587 232.451 441.811 232.451 442.803 233.443 442.803 234.668Z" stroke="#EF9616" stroke-width="0.410459" stroke-miterlimit="10" stroke-dasharray="14.7765 14.7765" fill="#F7B15E" transform="matrix(1 0 0 1.00007 0 -31.9473)"/><path d="M463.786 237.656C463.786 238.88 462.794 239.872 461.569 239.872 460.345 239.872 459.353 238.88 459.353 237.656 459.353 236.432 460.345 235.439 461.569 235.439 462.794 235.439 463.786 236.432 463.786 237.656Z" stroke="#EF9616" stroke-width="0.410459" stroke-miterlimit="10" stroke-dasharray="14.7765 14.7765" fill="#F7B15E" transform="matrix(1 0 0 1.00007 0 -31.9473)"/><path d="M426.68 247.884C426.68 249.109 425.688 250.101 424.464 250.101 423.24 250.101 422.247 249.109 422.247 247.884 422.247 246.66 423.24 245.668 424.464 245.668 425.688 245.668 426.68 246.66 426.68 247.884Z" stroke="#EF9616" stroke-width="0.410459" stroke-miterlimit="10" stroke-dasharray="14.7765 14.7765" fill="#F7B15E" transform="matrix(1 0 0 1.00007 0 -31.9473)"/><path d="M665.978 180.881 776.08 180.881C776.08 180.881 776.391 343.209 776.08 342.897 775.768 342.586 665.978 342.897 665.978 342.897L665.978 180.881" fill="#E6E6E6" transform="matrix(1 0 0 1.00007 -137.29 -65.6565)"/><path d="M569.143 164.545C569.143 165.769 568.15 166.761 566.926 166.761 565.702 166.761 564.71 165.769 564.71 164.545 564.71 163.321 565.702 162.328 566.926 162.328 568.15 162.328 569.143 163.321 569.143 164.545Z" stroke="#EF9616" stroke-width="0.410459" stroke-miterlimit="10" stroke-dasharray="14.7765 14.7765" fill="#F7B15E" transform="matrix(1 0 0 1.00007 0 -31.9473)"/><path d="M554.826 283.611C554.826 284.835 553.833 285.827 552.609 285.827 551.385 285.827 550.393 284.835 550.393 283.611 550.393 282.387 551.385 281.394 552.609 281.394 553.833 281.394 554.826 282.387 554.826 283.611Z" stroke="#EF9616" stroke-width="0.410459" stroke-miterlimit="10" stroke-dasharray="14.7765 14.7765" fill="#F7B15E" transform="matrix(1 0 0 1.00007 0 -31.9473)"/><path d="M534.516 181.735C534.516 182.959 533.524 183.951 532.3 183.951 531.076 183.951 530.083 182.959 530.083 181.735 530.083 180.511 531.076 179.518 532.3 179.518 533.524 179.518 534.516 180.511 534.516 181.735Z" stroke="#EF9616" stroke-width="0.410459" stroke-miterlimit="10" stroke-dasharray="14.7765 14.7765" fill="#F7B15E" transform="matrix(1 0 0 1.00007 0 -31.9473)"/><path d="M619.448 172.738C619.448 173.962 618.456 174.954 617.232 174.954 616.008 174.954 615.015 173.962 615.015 172.738 615.015 171.513 616.008 170.521 617.232 170.521 618.456 170.521 619.448 171.513 619.448 172.738Z" stroke="#EF9616" stroke-width="0.410459" stroke-miterlimit="10" stroke-dasharray="14.7765 14.7765" fill="#F7B15E" transform="matrix(1 0 0 1.00007 0 -31.9473)"/><path d="M610.878 298.634C610.878 299.858 609.886 300.85 608.661 300.85 607.437 300.85 606.445 299.858 606.445 298.634 606.445 297.409 607.437 296.417 608.661 296.417 609.886 296.417 610.878 297.409 610.878 298.634Z" stroke="#EF9616" stroke-width="0.410459" stroke-miterlimit="10" stroke-dasharray="14.7765 14.7765" fill="#F7B15E" transform="matrix(1 0 0 1.00007 0 -31.9473)"/><path d="M606.58 164.155C622.313 180.02 622.174 205.668 606.271 221.439 590.367 237.211 564.722 237.135 548.99 221.269 533.257 205.403 533.396 179.756 549.299 163.984 565.202 148.213 590.848 148.289 606.58 164.155Z" stroke="#EA7C00" stroke-width="4.10473" stroke-miterlimit="10" fill="none"/><path d="M580.011 199.253C580.011 200.477 579.019 201.47 577.795 201.47 576.571 201.47 575.578 200.477 575.578 199.253 575.578 198.029 576.571 197.037 577.795 197.037 579.019 197.037 580.011 198.029 580.011 199.253Z" stroke="#EF9616" stroke-width="0.410459" stroke-miterlimit="10" stroke-dasharray="14.7765 14.7765" fill="#F7B15E" transform="matrix(1 0 0 1.00007 0 -31.9473)"/><path d="M610.648 220.843C610.648 222.068 609.656 223.06 608.432 223.06 607.208 223.06 606.215 222.068 606.215 220.843 606.215 219.619 607.207 218.627 608.432 218.627 609.656 218.627 610.648 219.619 610.648 220.843Z" stroke="#EF9616" stroke-width="0.410459" stroke-miterlimit="10" stroke-dasharray="14.7765 14.7765" fill="#F7B15E" transform="matrix(1 0 0 1.00007 0 -31.9473)"/><path d="M557.584 226.869C557.584 228.093 556.592 229.085 555.367 229.085 554.143 229.085 553.151 228.093 553.151 226.869 553.151 225.645 554.143 224.652 555.367 224.652 556.592 224.652 557.584 225.645 557.584 226.869Z" stroke="#EF9616" stroke-width="0.410459" stroke-miterlimit="10" stroke-dasharray="14.7765 14.7765" fill="#F7B15E" transform="matrix(1 0 0 1.00007 0 -31.9473)"/><path d="M587.859 223.06C587.859 224.284 586.867 225.276 585.643 225.276 584.419 225.276 583.426 224.284 583.426 223.06 583.426 221.836 584.419 220.843 585.643 220.843 586.867 220.843 587.859 221.836 587.859 223.06Z" stroke="#EF9616" stroke-width="0.410459" stroke-miterlimit="10" stroke-dasharray="14.7765 14.7765" fill="#F7B15E" transform="matrix(1 0 0 1.00007 0 -31.9473)"/><path d="M586.333 241.498C586.333 242.722 585.34 243.714 584.116 243.714 582.892 243.714 581.9 242.722 581.9 241.498 581.9 240.274 582.892 239.281 584.116 239.281 585.34 239.281 586.333 240.274 586.333 241.498Z" stroke="#EF9616" stroke-width="0.410459" stroke-miterlimit="10" stroke-dasharray="14.7765 14.7765" fill="#F7B15E" transform="matrix(1 0 0 1.00007 0 -31.9473)"/><path d="M607.315 244.486C607.315 245.71 606.323 246.702 605.099 246.702 603.875 246.702 602.882 245.71 602.882 244.486 602.882 243.262 603.875 242.269 605.099 242.269 606.323 242.269 607.315 243.262 607.315 244.486Z" stroke="#EF9616" stroke-width="0.410459" stroke-miterlimit="10" stroke-dasharray="14.7765 14.7765" fill="#F7B15E" transform="matrix(1 0 0 1.00007 0 -31.9473)"/><path d="M570.21 254.714C570.21 255.939 569.217 256.931 567.993 256.931 566.769 256.931 565.777 255.939 565.777 254.714 565.777 253.49 566.769 252.498 567.993 252.498 569.217 252.498 570.21 253.49 570.21 254.714Z" stroke="#EF9616" stroke-width="0.410459" stroke-miterlimit="10" stroke-dasharray="14.7765 14.7765" fill="#F7B15E" transform="matrix(1 0 0 1.00007 0 -31.9473)"/><text font-family="Cambria,Cambria_MSFontService,sans-serif" font-weight="400" font-size="12" transform="matrix(1.64184 0 0 1.64195 76.5917 150)">EV</text><path d="M122.35 290.999 137.077 290.999 141.362 280.754" stroke="#000000" stroke-width="1.64184" stroke-miterlimit="10" fill="none" transform="matrix(1 0 0 1.00007 0 -31.9473)"/><path d="M143.283 284.054 140.968 281.673 137.668 281.69 143.267 276.223 143.283 284.054Z" transform="matrix(1 0 0 1.00007 0 -31.9473)"/><path d="" stroke="#000000" stroke-width="1.64184" stroke-miterlimit="10" fill="none" transform="matrix(1 0 0 1.00007 -137.29 -65.6565)"/><text font-family="Cambria,Cambria_MSFontService,sans-serif" font-weight="400" font-size="12" transform="matrix(1.64184 0 0 1.64195 18.1423 262)">T</text><text font-family="Cambria,Cambria_MSFontService,sans-serif" font-weight="400" font-size="12" transform="matrix(1.64184 0 0 1.64195 28.2888 262)">a</text><text font-family="Cambria,Cambria_MSFontService,sans-serif" font-weight="400" font-size="12" transform="matrix(1.64184 0 0 1.64195 37.91 262)">r</text><text font-family="Cambria,Cambria_MSFontService,sans-serif" font-weight="400" font-size="12" transform="matrix(1.64184 0 0 1.64195 45.9222 262)">get Drug</text><path d="M74.8349 174.576 61.0927 174.576 57.4643 182.063" stroke="#000000" stroke-width="1.64184" stroke-miterlimit="10" fill="none" transform="matrix(1 0 0 1.00007 0 -31.9473)"/><path d="M55.7239 178.648 57.9076 181.144 61.1912 181.308 55.3135 186.463 55.7239 178.648Z" transform="matrix(1 0 0 1.00007 0 -31.9473)"/><path d="M91.1547 63.7197C91.1547 71.7626 84.6346 78.2827 76.5917 78.2827 68.5487 78.2827 62.0286 71.7626 62.0286 63.7197 62.0286 55.6767 68.5487 49.1566 76.5917 49.1566 84.6346 49.1566 91.1547 55.6767 91.1547 63.7197Z" stroke="#00B0F0" stroke-width="2.46275" stroke-miterlimit="10" fill="none" transform="matrix(1 0 0 1.00007 0 -31.9473)"/><text font-family="Cambria,Cambria_MSFontService,sans-serif" font-weight="400" font-size="12" transform="matrix(1.64184 0 0 1.64195 71.4527 39)">1</text><text font-family="Cambria,Cambria_MSFontService,sans-serif" font-weight="400" font-size="12" transform="matrix(1.64184 0 0 1.64195 26.6798 71)">EV and drug</text><text font-family="Cambria,Cambria_MSFontService,sans-serif" font-weight="400" font-size="12" transform="matrix(1.64184 0 0 1.64195 18.3886 94)"> at suspension</text><path d="M261.413 61.536C261.413 69.579 254.893 76.0991 246.85 76.0991 238.807 76.0991 232.287 69.579 232.287 61.536 232.287 53.493 238.807 46.9729 246.85 46.9729 254.893 46.9729 261.413 53.493 261.413 61.536Z" stroke="#00B0F0" stroke-width="2.46275" stroke-miterlimit="10" fill="none" transform="matrix(1 0 0 1.00007 0 -31.9473)"/><text font-family="Cambria,Cambria_MSFontService,sans-serif" font-weight="400" font-size="12" transform="matrix(1.64184 0 0 1.64195 241.711 37)">2</text><text font-family="Cambria,Cambria_MSFontService,sans-serif" font-weight="400" font-size="12" transform="matrix(1.64184 0 0 1.64195 236.917 69)">EV</text><text font-family="Cambria,Cambria_MSFontService,sans-serif" font-weight="400" font-size="12" transform="matrix(1.64184 0 0 1.64195 204.113 92)"> squeezing</text><path d="M433.264 61.536C433.264 69.579 426.744 76.0991 418.701 76.0991 410.658 76.0991 404.138 69.579 404.138 61.536 404.138 53.493 410.658 46.9729 418.701 46.9729 426.744 46.9729 433.264 53.493 433.264 61.536Z" stroke="#00B0F0" stroke-width="2.46275" stroke-miterlimit="10" fill="none" transform="matrix(1 0 0 1.00007 0 -31.9473)"/><text font-family="Cambria,Cambria_MSFontService,sans-serif" font-weight="400" font-size="12" transform="matrix(1.64184 0 0 1.64195 413.562 37)">3</text><text font-family="Cambria,Cambria_MSFontService,sans-serif" font-weight="400" font-size="12" transform="matrix(1.64184 0 0 1.64195 334.508 69)">T</text><text font-family="Cambria,Cambria_MSFontService,sans-serif" font-weight="400" font-size="12" transform="matrix(1.64184 0 0 1.64195 344.654 69)">a</text><text font-family="Cambria,Cambria_MSFontService,sans-serif" font-weight="400" font-size="12" transform="matrix(1.64184 0 0 1.64195 354.275 69)">r</text><text font-family="Cambria,Cambria_MSFontService,sans-serif" font-weight="400" font-size="12" transform="matrix(1.64184 0 0 1.64195 362.288 69)">ge</text><text font-family="Cambria,Cambria_MSFontService,sans-serif" font-weight="400" font-size="12" transform="matrix(1.64184 0 0 1.64195 381.628 69)">t</text><text font-family="Cambria,Cambria_MSFontService,sans-serif" font-weight="400" font-size="12" transform="matrix(1.64184 0 0 1.64195 388.114 69)">ed drug en</text><text font-family="Cambria,Cambria_MSFontService,sans-serif" font-weight="400" font-size="12" transform="matrix(1.64184 0 0 1.64195 477.643 69)">t</text><text font-family="Cambria,Cambria_MSFontService,sans-serif" font-weight="400" font-size="12" transform="matrix(1.64184 0 0 1.64195 484.128 69)">er </text><text font-family="Cambria,Cambria_MSFontService,sans-serif" font-weight="400" font-size="12" transform="matrix(1.64184 0 0 1.64195 372.976 92)">th</text><text font-family="Cambria,Cambria_MSFontService,sans-serif" font-weight="400" font-size="12" transform="matrix(1.64184 0 0 1.64195 390.527 92)">r</text><text font-family="Cambria,Cambria_MSFontService,sans-serif" font-weight="400" font-size="12" transform="matrix(1.64184 0 0 1.64195 398.375 92)">ou</text><text font-family="Cambria,Cambria_MSFontService,sans-serif" font-weight="400" font-size="12" transform="matrix(1.64184 0 0 1.64195 419.719 92)">g</text><text font-family="Cambria,Cambria_MSFontService,sans-serif" font-weight="400" font-size="12" transform="matrix(1.64184 0 0 1.64195 429.324 92)">h EV</text><path d="M596.463 63.8838C596.463 71.9268 589.943 78.4469 581.9 78.4469 573.857 78.4469 567.337 71.9268 567.337 63.8838 567.337 55.8409 573.857 49.3208 581.9 49.3208 589.943 49.3208 596.463 55.8409 596.463 63.8838Z" stroke="#00B0F0" stroke-width="2.46275" stroke-miterlimit="10" fill="none" transform="matrix(1 0 0 1.00007 0 -31.9473)"/><text font-family="Cambria,Cambria_MSFontService,sans-serif" font-weight="400" font-size="12" transform="matrix(1.64184 0 0 1.64195 576.761 39)">4</text><text font-family="Cambria,Cambria_MSFontService,sans-serif" font-weight="400" font-size="12" transform="matrix(1.64184 0 0 1.64195 533.777 71)">Memb</text><text font-family="Cambria,Cambria_MSFontService,sans-serif" font-weight="400" font-size="12" transform="matrix(1.64184 0 0 1.64195 586.628 71)">r</text><text font-family="Cambria,Cambria_MSFontService,sans-serif" font-weight="400" font-size="12" transform="matrix(1.64184 0 0 1.64195 594.443 71)">ane  </text><text font-family="Cambria,Cambria_MSFontService,sans-serif" font-weight="400" font-size="12" transform="matrix(1.64184 0 0 1.64195 554.07 95)">r</text><text font-family="Cambria,Cambria_MSFontService,sans-serif" font-weight="400" font-size="12" transform="matrix(1.64184 0 0 1.64195 561.935 95)">eseals</text><text font-family="Myriad Pro,Myriad Pro_MSFontService,sans-serif" font-weight="400" font-size="12" transform="matrix(1.64184 0 0 1.64195 1079.47 -15)">L</text><text font-family="Myriad Pro,Myriad Pro_MSFontService,sans-serif" font-weight="400" font-size="12" transform="matrix(1.64184 0 0 1.64195 1088.5 -15)">o</text><text font-family="Myriad Pro,Myriad Pro_MSFontService,sans-serif" font-weight="400" font-size="12" transform="matrix(1.64184 0 0 1.64195 1099.31 -15)">r</text><text font-family="Myriad Pro,Myriad Pro_MSFontService,sans-serif" font-weight="400" font-size="12" transform="matrix(1.64184 0 0 1.64195 1105.56 -15)">em ipsum</text></g></svg>