<svg id="Layer_1" data-name="Layer 1" xmlns="http://www.w3.org/2000/svg" xmlns:xlink="http://www.w3.org/1999/xlink" viewBox="0 0 682.75 621.63"><defs><clipPath id="clip-path"><rect x="117.55" y="7.2" width="558" height="543.6" fill="none"/></clipPath></defs><g id="figure_1" data-name="figure 1"><g id="patch_1" data-name="patch 1"><path d="M0,621.63H682.75V0H0Z" fill="none"/></g><g id="axes_1" data-name="axes 1"><g id="patch_2" data-name="patch 2"><path d="M117.55,550.8h558V7.2h-558Z" fill="none"/></g><g id="PathCollection_1" data-name="PathCollection 1"><g clip-path="url(#clip-path)"><path id="mcc12e66eb5" d="M481.1,335.49a7.07,7.07,0,1,0,0-14.14,7.07,7.07,0,1,0,0,14.14Z" fill="#5e8d5a" stroke="#5e8d5a" stroke-linejoin="round"/><path id="mcc12e66eb5-2" data-name="mcc12e66eb5" d="M481.1,236.65a7.08,7.08,0,1,0-5-2.07A7.07,7.07,0,0,0,481.1,236.65Z" fill="#5e8d5a" stroke="#5e8d5a" stroke-linejoin="round"/><path id="mcc12e66eb5-3" data-name="mcc12e66eb5" d="M312,434.33a7.08,7.08,0,1,0-5-2.08A7,7,0,0,0,312,434.33Z" fill="#5e8d5a" stroke="#5e8d5a" stroke-linejoin="round"/><path id="mcc12e66eb5-4" data-name="mcc12e66eb5" d="M312,335.49a7.07,7.07,0,1,0-5-2.07A7.08,7.08,0,0,0,312,335.49Z" fill="#5e8d5a" stroke="#5e8d5a" stroke-linejoin="round"/><path id="mcc12e66eb5-5" data-name="mcc12e66eb5" d="M142.91,533.16a7.07,7.07,0,1,0-5-12.07,7.07,7.07,0,0,0,5,12.07Z" fill="#5e8d5a" stroke="#5e8d5a" stroke-linejoin="round"/><path id="mcc12e66eb5-6" data-name="mcc12e66eb5" d="M312,236.65a7.07,7.07,0,1,0,0-14.14,7.07,7.07,0,1,0,0,14.14Z" fill="#5e8d5a" stroke="#5e8d5a" stroke-linejoin="round"/><path id="mcc12e66eb5-7" data-name="mcc12e66eb5" d="M481.1,137.82a7.08,7.08,0,1,0-5-2.07A7.11,7.11,0,0,0,481.1,137.82Z" fill="#5e8d5a" stroke="#5e8d5a" stroke-linejoin="round"/><path id="mcc12e66eb5-8" data-name="mcc12e66eb5" d="M650.19,137.82a7.08,7.08,0,1,0-5-12.07,7.07,7.07,0,0,0,5,12.07Z" fill="#5e8d5a" stroke="#5e8d5a" stroke-linejoin="round"/><path id="mcc12e66eb5-9" data-name="mcc12e66eb5" d="M650.19,39a7.07,7.07,0,1,0-5-2.07A7.07,7.07,0,0,0,650.19,39Z" fill="#5e8d5a" stroke="#5e8d5a" stroke-linejoin="round"/></g></g><g id="PathCollection_2" data-name="PathCollection 2"><g clip-path="url(#clip-path)"><path id="m3fd2dbb97e" d="M312,137.82a7.07,7.07,0,1,0-5-2.07A7.08,7.08,0,0,0,312,137.82Z" fill="#f68f3c" stroke="#f68f3c" stroke-linejoin="round"/><path id="m3fd2dbb97e-2" data-name="m3fd2dbb97e" d="M312,39a7.07,7.07,0,1,0-7.07-7.07A7.07,7.07,0,0,0,312,39Z" fill="#f68f3c" stroke="#f68f3c" stroke-linejoin="round"/><path id="m3fd2dbb97e-3" data-name="m3fd2dbb97e" d="M481.1,39a7.08,7.08,0,1,0-5-2.07A7.07,7.07,0,0,0,481.1,39Z" fill="#f68f3c" stroke="#f68f3c" stroke-linejoin="round"/><path id="m3fd2dbb97e-4" data-name="m3fd2dbb97e" d="M142.91,39a7.07,7.07,0,1,0-7.07-7.07A7.07,7.07,0,0,0,142.91,39Z" fill="#f68f3c" stroke="#f68f3c" stroke-linejoin="round"/><path id="m3fd2dbb97e-5" data-name="m3fd2dbb97e" d="M142.91,137.82a7.07,7.07,0,1,0-5-2.07A7.08,7.08,0,0,0,142.91,137.82Z" fill="#f68f3c" stroke="#f68f3c" stroke-linejoin="round"/><path id="m3fd2dbb97e-6" data-name="m3fd2dbb97e" d="M142.91,434.33a7.08,7.08,0,1,0-5-2.08A7,7,0,0,0,142.91,434.33Z" fill="#f68f3c" stroke="#f68f3c" stroke-linejoin="round"/><path id="m3fd2dbb97e-7" data-name="m3fd2dbb97e" d="M142.91,335.49a7.07,7.07,0,1,0-5-2.07A7.08,7.08,0,0,0,142.91,335.49Z" fill="#f68f3c" stroke="#f68f3c" stroke-linejoin="round"/><path id="m3fd2dbb97e-8" data-name="m3fd2dbb97e" d="M142.91,236.65a7.07,7.07,0,1,0,0-14.14,7.07,7.07,0,1,0,0,14.14Z" fill="#f68f3c" stroke="#f68f3c" stroke-linejoin="round"/></g></g><g id="PathCollection_3" data-name="PathCollection 3"><g clip-path="url(#clip-path)"><path id="m22afdbaec4" d="M312,533.16a7.07,7.07,0,1,0-5-12.07,7.07,7.07,0,0,0,5,12.07Z" fill="#0c2d48" stroke="#0c2d48" stroke-linejoin="round"/><path id="m22afdbaec4-2" data-name="m22afdbaec4" d="M481.1,434.33a7.1,7.1,0,1,0-5-2.08A7.08,7.08,0,0,0,481.1,434.33Z" fill="#0c2d48" stroke="#0c2d48" stroke-linejoin="round"/><path id="m22afdbaec4-3" data-name="m22afdbaec4" d="M481.1,533.16a7.08,7.08,0,1,0-5-2.07A7.07,7.07,0,0,0,481.1,533.16Z" fill="#0c2d48" stroke="#0c2d48" stroke-linejoin="round"/><path id="m22afdbaec4-4" data-name="m22afdbaec4" d="M481.1,434.33a7.1,7.1,0,1,0-5-2.08A7.08,7.08,0,0,0,481.1,434.33Z" fill="#0c2d48" stroke="#0c2d48" stroke-linejoin="round"/><path id="m22afdbaec4-5" data-name="m22afdbaec4" d="M650.19,533.16a7.07,7.07,0,1,0-5-2.07A7.07,7.07,0,0,0,650.19,533.16Z" fill="#0c2d48" stroke="#0c2d48" stroke-linejoin="round"/><path id="m22afdbaec4-6" data-name="m22afdbaec4" d="M650.19,434.33a7.08,7.08,0,1,0-5-2.08A7.08,7.08,0,0,0,650.19,434.33Z" fill="#0c2d48" stroke="#0c2d48" stroke-linejoin="round"/><path id="m22afdbaec4-7" data-name="m22afdbaec4" d="M650.19,335.49a7.07,7.07,0,1,0,0-14.14,7.07,7.07,0,1,0,0,14.14Z" fill="#0c2d48" stroke="#0c2d48" stroke-linejoin="round"/><path id="m22afdbaec4-8" data-name="m22afdbaec4" d="M650.19,236.65a7.07,7.07,0,1,0-5-2.07A7.07,7.07,0,0,0,650.19,236.65Z" fill="#0c2d48" stroke="#0c2d48" stroke-linejoin="round"/></g></g><g id="matplotlib.axis_1" data-name="matplotlib.axis 1"><g id="xtick_1" data-name="xtick 1"><g id="line2d_1" data-name="line2d 1"><path id="mcc6fcb4efe" d="M142.91,550.8v-10" stroke="#000" stroke-linejoin="round" stroke-width="2.5"/></g><g id="text_1" data-name="text 1"><path id="DejaVuSans-48" d="M129.07,557.08a3.55,3.55,0,0,0-3.32,2.17,19.76,19.76,0,0,0,0,13.06,3.64,3.64,0,0,0,6.66,0,19.76,19.76,0,0,0,0-13.06A3.57,3.57,0,0,0,129.07,557.08Zm0-2.27a6.12,6.12,0,0,1,5.43,2.82q1.88,2.8,1.88,8.16c0,3.56-.63,6.27-1.88,8.15a6.65,6.65,0,0,1-10.86,0c-1.25-1.88-1.87-4.59-1.87-8.15s.62-6.29,1.87-8.16A6.12,6.12,0,0,1,129.07,554.81Z"/><path id="DejaVuSans-46" d="M141.4,572.74h3v3.6h-3Z"/><path id="DejaVuSans-54" d="M157.1,564.63A3.82,3.82,0,0,0,154,566a5.33,5.33,0,0,0-1.12,3.6,5.42,5.42,0,0,0,1.12,3.61,4.2,4.2,0,0,0,6.11,0,5.42,5.42,0,0,0,1.12-3.61,5.33,5.33,0,0,0-1.12-3.6A3.8,3.8,0,0,0,157.1,564.63Zm5.68-9v2.6a12.33,12.33,0,0,0-2.18-.77,9.08,9.08,0,0,0-2.17-.27,5.18,5.18,0,0,0-4.33,1.91,10.3,10.3,0,0,0-1.71,5.78,5.75,5.75,0,0,1,2.1-1.89,5.91,5.91,0,0,1,2.78-.66,6.63,6.63,0,0,1,5,1.94,7.26,7.26,0,0,1,1.85,5.25,7.14,7.14,0,0,1-1.93,5.23,6.84,6.84,0,0,1-5.12,2,6.4,6.4,0,0,1-5.61-2.81c-1.29-1.88-1.94-4.59-1.94-8.15a12.46,12.46,0,0,1,2.38-8,7.75,7.75,0,0,1,6.38-3,11.58,11.58,0,0,1,2.18.21A17.72,17.72,0,0,1,162.78,555.66Z"/></g></g><g id="xtick_2" data-name="xtick 2"><g id="line2d_2" data-name="line2d 2"><path id="mcc6fcb4efe-2" data-name="mcc6fcb4efe" d="M312,550.8v-10" stroke="#000" stroke-linejoin="round" stroke-width="2.5"/></g><g id="text_2" data-name="text 2"><path id="DejaVuSans-48-2" data-name="DejaVuSans-48" d="M298.16,557.08a3.55,3.55,0,0,0-3.32,2.17,19.76,19.76,0,0,0,0,13.06,3.64,3.64,0,0,0,6.66,0,19.76,19.76,0,0,0,0-13.06A3.56,3.56,0,0,0,298.16,557.08Zm0-2.27a6.12,6.12,0,0,1,5.43,2.82c1.26,1.87,1.88,4.59,1.88,8.16s-.62,6.27-1.88,8.15a6.65,6.65,0,0,1-10.86,0c-1.25-1.88-1.87-4.59-1.87-8.15s.62-6.29,1.87-8.16A6.12,6.12,0,0,1,298.16,554.81Z"/><path id="DejaVuSans-46-2" data-name="DejaVuSans-46" d="M310.5,572.74h3v3.6h-3Z"/><path id="DejaVuSans-55" d="M319,555.19h13.6v1.22l-7.68,19.93h-3l7.23-18.74H319Z"/></g></g><g id="xtick_3" data-name="xtick 3"><g id="line2d_3" data-name="line2d 3"><path id="mcc6fcb4efe-3" data-name="mcc6fcb4efe" d="M481.1,550.8v-10" stroke="#000" stroke-linejoin="round" stroke-width="2.5"/></g><g id="text_3" data-name="text 3"><path id="DejaVuSans-48-3" data-name="DejaVuSans-48" d="M467.25,557.08a3.55,3.55,0,0,0-3.32,2.17,19.76,19.76,0,0,0,0,13.06,3.64,3.64,0,0,0,6.66,0,19.76,19.76,0,0,0,0-13.06A3.56,3.56,0,0,0,467.25,557.08Zm0-2.27a6.14,6.14,0,0,1,5.44,2.82q1.88,2.8,1.87,8.16c0,3.56-.62,6.27-1.87,8.15a6.66,6.66,0,0,1-10.87,0c-1.25-1.88-1.87-4.59-1.87-8.15s.62-6.29,1.87-8.16A6.12,6.12,0,0,1,467.25,554.81Z"/><path id="DejaVuSans-46-3" data-name="DejaVuSans-46" d="M479.59,572.74h3v3.6h-3Z"/><path id="DejaVuSans-56" d="M494.92,566.29a4.51,4.51,0,0,0-3.21,1.1,4.46,4.46,0,0,0,0,6,5.27,5.27,0,0,0,6.42,0,4.42,4.42,0,0,0,0-6A4.51,4.51,0,0,0,494.92,566.29Zm-2.86-1.21a5.19,5.19,0,0,1-2.87-1.71,4.76,4.76,0,0,1-1-3.08,4.92,4.92,0,0,1,1.8-4,9.09,9.09,0,0,1,9.91,0,4.92,4.92,0,0,1,1.8,4,4.77,4.77,0,0,1-1,3.08,5.1,5.1,0,0,1-2.85,1.71A5.7,5.7,0,0,1,501,567a5.23,5.23,0,0,1,1.15,3.43,6,6,0,0,1-1.87,4.72,9.63,9.63,0,0,1-10.75,0,6,6,0,0,1-1.88-4.72,5.23,5.23,0,0,1,1.16-3.43A5.8,5.8,0,0,1,492.06,565.08Zm-1-4.52a3.26,3.26,0,0,0,1,2.56,5,5,0,0,0,5.76,0,3.65,3.65,0,0,0,0-5.12,5,5,0,0,0-5.76,0A3.27,3.27,0,0,0,491,560.56Z"/></g></g><g id="xtick_4" data-name="xtick 4"><g id="line2d_4" data-name="line2d 4"><path id="mcc6fcb4efe-4" data-name="mcc6fcb4efe" d="M650.19,550.8v-10" stroke="#000" stroke-linejoin="round" stroke-width="2.5"/></g><g id="text_4" data-name="text 4"><path id="DejaVuSans-48-4" data-name="DejaVuSans-48" d="M636.34,557.08a3.56,3.56,0,0,0-3.32,2.17,19.76,19.76,0,0,0,0,13.06,3.64,3.64,0,0,0,6.66,0,19.76,19.76,0,0,0,0-13.06A3.56,3.56,0,0,0,636.34,557.08Zm0-2.27a6.13,6.13,0,0,1,5.44,2.82q1.88,2.8,1.87,8.16c0,3.56-.62,6.27-1.87,8.15a6.65,6.65,0,0,1-10.86,0c-1.26-1.88-1.88-4.59-1.88-8.15s.62-6.29,1.88-8.16A6.12,6.12,0,0,1,636.34,554.81Z"/><path id="DejaVuSans-46-4" data-name="DejaVuSans-46" d="M648.68,572.74h3v3.6h-3Z"/><path id="DejaVuSans-57" d="M658,575.9v-2.61a11.63,11.63,0,0,0,2.18.78,9.14,9.14,0,0,0,2.17.27,5.15,5.15,0,0,0,4.32-1.91,10.14,10.14,0,0,0,1.71-5.78,5.57,5.57,0,0,1-2.08,1.87,6,6,0,0,1-2.79.65,6.65,6.65,0,0,1-5-1.92,7.26,7.26,0,0,1-1.85-5.25,7.11,7.11,0,0,1,1.93-5.22,6.84,6.84,0,0,1,5.12-2,6.35,6.35,0,0,1,5.6,2.82q1.93,2.8,1.94,8.16a12.42,12.42,0,0,1-2.38,8,7.73,7.73,0,0,1-6.37,3,11,11,0,0,1-2.19-.22A16.16,16.16,0,0,1,658,575.9Zm5.69-9a3.78,3.78,0,0,0,3.05-1.31,6.33,6.33,0,0,0,0-7.22,4.18,4.18,0,0,0-6.1,0,6.38,6.38,0,0,0,0,7.22A3.8,3.8,0,0,0,663.67,566.93Z"/></g></g><g id="text_5" data-name="text 5"><path id="DejaVuSans-87" d="M339.35,587.26h2.88l4.45,17.87,4.43-17.87h3.22l4.44,17.87,4.43-17.87h2.91L360.8,608.4h-3.6l-4.46-18.35-4.5,18.35h-3.6Z"/><path id="DejaVuSans-105" d="M369.14,592.54h2.6V608.4h-2.6Zm0-6.17h2.6v3.3h-2.6Z"/><path id="DejaVuSans-100" d="M387.63,595v-8.58h2.6v22h-2.6V606a5.41,5.41,0,0,1-2.08,2.11,6.21,6.21,0,0,1-3,.68,5.7,5.7,0,0,1-4.69-2.29,11,11,0,0,1,0-12.07,5.73,5.73,0,0,1,4.69-2.29,6.1,6.1,0,0,1,3,.69A5.45,5.45,0,0,1,387.63,595Zm-8.88,5.54a7.54,7.54,0,0,0,1.19,4.5,4,4,0,0,0,6.5,0,9.12,9.12,0,0,0,0-9,4,4,0,0,0-6.5,0A7.55,7.55,0,0,0,378.75,600.49Z"/><path id="DejaVuSans-116" d="M398.18,588v4.5h5.37v2h-5.37v8.61a3.92,3.92,0,0,0,.53,2.49,3,3,0,0,0,2.16.55h2.68v2.18h-2.68c-2,0-3.4-.37-4.16-1.12s-1.15-2.12-1.15-4.1v-8.61h-1.91v-2h1.91V588Z"/><path id="DejaVuSans-104" d="M420.16,598.83v9.57h-2.61v-9.49a5.33,5.33,0,0,0-.88-3.36,3.12,3.12,0,0,0-2.63-1.12,4.28,4.28,0,0,0-3.33,1.34,5.28,5.28,0,0,0-1.22,3.67v9h-2.62v-22h2.62V595a6.39,6.39,0,0,1,2.2-2.14,6,6,0,0,1,2.93-.71,5.07,5.07,0,0,1,4.13,1.69A7.62,7.62,0,0,1,420.16,598.83Z"/><path id="DejaVuSans-47" d="M430,587.26h2.41L425,611.09h-2.41Z"/><path id="DejaVuSans-68" d="M438.1,589.61v16.44h3.45q4.38,0,6.41-2t2-6.26c0-2.83-.68-4.91-2-6.22s-3.49-2-6.41-2Zm-2.86-2.35h5.87q6.15,0,9,2.55c1.92,1.71,2.88,4.37,2.88,8s-1,6.32-2.89,8-4.93,2.56-9,2.56h-5.87Z"/></g></g><g id="matplotlib.axis_2" data-name="matplotlib.axis 2"><g id="ytick_1" data-name="ytick 1"><g id="line2d_5" data-name="line2d 5"><path id="me1a0dd1f83" d="M117.55,427.25h10" stroke="#000" stroke-linejoin="round" stroke-width="2.5"/></g><g id="text_6" data-name="text 6"><path id="DejaVuSans-48-5" data-name="DejaVuSans-48" d="M58.7,419a3.56,3.56,0,0,0-3.32,2.18,19.57,19.57,0,0,0,0,13.05,3.63,3.63,0,0,0,6.65,0,19.57,19.57,0,0,0,0-13.05A3.56,3.56,0,0,0,58.7,419Zm0-2.26a6.13,6.13,0,0,1,5.43,2.81Q66,422.38,66,427.72t-1.88,8.16a6.67,6.67,0,0,1-10.86,0q-1.87-2.82-1.88-8.16t1.88-8.16A6.13,6.13,0,0,1,58.7,416.75Z"/><path id="DejaVuSans-46-5" data-name="DejaVuSans-46" d="M71,434.67h3v3.6H71Z"/><path id="DejaVuSans-48-6" data-name="DejaVuSans-48" d="M86.37,419A3.57,3.57,0,0,0,83,421.19a19.73,19.73,0,0,0,0,13.05,3.63,3.63,0,0,0,6.66,0,19.57,19.57,0,0,0,0-13.05A3.56,3.56,0,0,0,86.37,419Zm0-2.26a6.13,6.13,0,0,1,5.43,2.81q1.88,2.82,1.87,8.16t-1.87,8.16a6.67,6.67,0,0,1-10.86,0q-1.87-2.82-1.88-8.16t1.88-8.16A6.13,6.13,0,0,1,86.37,416.75Z"/><path id="DejaVuSans-50" d="M101.16,435.87h10v2.4H97.72v-2.4c1.09-1.13,2.57-2.63,4.44-4.53s3-3.11,3.54-3.66a13.48,13.48,0,0,0,1.91-2.61,4.54,4.54,0,0,0,.55-2.1,3.51,3.51,0,0,0-1.18-2.75,4.44,4.44,0,0,0-3.08-1.07,9.53,9.53,0,0,0-2.84.47A17,17,0,0,0,97.87,421v-2.89a23.49,23.49,0,0,1,3.22-1,12.4,12.4,0,0,1,2.75-.35,7.9,7.9,0,0,1,5.24,1.64,5.46,5.46,0,0,1,2,4.39,6.26,6.26,0,0,1-.49,2.47,11.47,11.47,0,0,1-1.77,2.75c-.24.28-1,1.07-2.25,2.38S103.47,433.52,101.16,435.87Z"/></g></g><g id="ytick_2" data-name="ytick 2"><g id="line2d_6" data-name="line2d 6"><path id="me1a0dd1f83-2" data-name="me1a0dd1f83" d="M117.55,229.58h10" stroke="#000" stroke-linejoin="round" stroke-width="2.5"/></g><g id="text_7" data-name="text 7"><path id="DejaVuSans-48-7" data-name="DejaVuSans-48" d="M58.7,221.34a3.56,3.56,0,0,0-3.32,2.18,19.57,19.57,0,0,0,0,13,3.63,3.63,0,0,0,6.65,0,19.57,19.57,0,0,0,0-13A3.56,3.56,0,0,0,58.7,221.34Zm0-2.26a6.11,6.11,0,0,1,5.43,2.81Q66,224.7,66,230.05t-1.88,8.15a6.65,6.65,0,0,1-10.86,0q-1.87-2.8-1.88-8.15t1.88-8.16A6.11,6.11,0,0,1,58.7,219.08Z"/><path id="DejaVuSans-46-6" data-name="DejaVuSans-46" d="M71,237h3v3.6H71Z"/><path id="DejaVuSans-48-8" data-name="DejaVuSans-48" d="M86.37,221.34A3.57,3.57,0,0,0,83,223.52a19.73,19.73,0,0,0,0,13,3.63,3.63,0,0,0,6.66,0,19.57,19.57,0,0,0,0-13A3.56,3.56,0,0,0,86.37,221.34Zm0-2.26a6.11,6.11,0,0,1,5.43,2.81q1.88,2.81,1.87,8.16T91.8,238.2a6.65,6.65,0,0,1-10.86,0q-1.87-2.8-1.88-8.15t1.88-8.16A6.11,6.11,0,0,1,86.37,219.08Z"/><path id="DejaVuSans-52" d="M106.56,222l-7.22,11.29h7.22Zm-.75-2.49h3.6v13.78h3v2.38h-3v5h-2.85v-5H97v-2.76Z"/></g></g><g id="ytick_3" data-name="ytick 3"><g id="line2d_7" data-name="line2d 7"><path id="me1a0dd1f83-3" data-name="me1a0dd1f83" d="M117.55,31.91h10" stroke="#000" stroke-linejoin="round" stroke-width="2.5"/></g><g id="text_8" data-name="text 8"><path id="DejaVuSans-48-9" data-name="DejaVuSans-48" d="M58.7,23.67a3.55,3.55,0,0,0-3.32,2.17,14.9,14.9,0,0,0-1.12,6.54,14.83,14.83,0,0,0,1.12,6.52,3.63,3.63,0,0,0,6.65,0,14.83,14.83,0,0,0,1.12-6.52A14.9,14.9,0,0,0,62,25.84,3.55,3.55,0,0,0,58.7,23.67Zm0-2.27a6.12,6.12,0,0,1,5.43,2.82Q66,27,66,32.38c0,3.56-.63,6.27-1.88,8.15a6.65,6.65,0,0,1-10.86,0c-1.25-1.88-1.88-4.59-1.88-8.15s.63-6.29,1.88-8.16A6.12,6.12,0,0,1,58.7,21.4Z"/><path id="DejaVuSans-46-7" data-name="DejaVuSans-46" d="M71,39.33h3v3.6H71Z"/><path id="DejaVuSans-48-10" data-name="DejaVuSans-48" d="M86.37,23.67A3.56,3.56,0,0,0,83,25.84a14.92,14.92,0,0,0-1.11,6.54A14.85,14.85,0,0,0,83,38.9a3.64,3.64,0,0,0,6.66,0,14.83,14.83,0,0,0,1.12-6.52,14.9,14.9,0,0,0-1.12-6.54A3.55,3.55,0,0,0,86.37,23.67Zm0-2.27a6.12,6.12,0,0,1,5.43,2.82q1.88,2.81,1.87,8.16c0,3.56-.62,6.27-1.87,8.15a6.65,6.65,0,0,1-10.86,0c-1.25-1.88-1.88-4.59-1.88-8.15s.63-6.29,1.88-8.16A6.12,6.12,0,0,1,86.37,21.4Z"/><path id="DejaVuSans-54-2" data-name="DejaVuSans-54" d="M105.17,31.22a3.8,3.8,0,0,0-3,1.32,5.35,5.35,0,0,0-1.12,3.6,5.4,5.4,0,0,0,1.12,3.61,4.18,4.18,0,0,0,6.1,0,5.4,5.4,0,0,0,1.13-3.61,5.35,5.35,0,0,0-1.13-3.6A3.79,3.79,0,0,0,105.17,31.22Zm5.68-9v2.61a11.54,11.54,0,0,0-2.17-.78,9.1,9.1,0,0,0-2.18-.27,5.18,5.18,0,0,0-4.33,1.91,10.3,10.3,0,0,0-1.7,5.78,5.72,5.72,0,0,1,2.09-1.89,5.94,5.94,0,0,1,2.78-.66,6.65,6.65,0,0,1,5,1.94,7.27,7.27,0,0,1,1.84,5.25,7.16,7.16,0,0,1-1.92,5.23,6.85,6.85,0,0,1-5.13,2,6.42,6.42,0,0,1-5.61-2.81c-1.29-1.88-1.93-4.59-1.93-8.15a12.51,12.51,0,0,1,2.37-8,7.78,7.78,0,0,1,6.39-3,10.73,10.73,0,0,1,2.17.22A15.8,15.8,0,0,1,110.85,22.25Z"/></g></g><g id="text_9" data-name="text 9"><path id="DejaVuSans-86" d="M39.14,384.53,18,392.6v-3l17.8-6.7L18,376.2v-3l21.15,8Z"/><path id="DejaVuSans-101" d="M30.55,356.69h1.28v12a6.09,6.09,0,0,0,4.1-1.62A5.58,5.58,0,0,0,37.34,363a11.58,11.58,0,0,0-.37-2.9,12.43,12.43,0,0,0-1.11-2.81h2.47a15.77,15.77,0,0,1,.91,2.88,15,15,0,0,1,.31,3,8.15,8.15,0,0,1-2.21,6,8.06,8.06,0,0,1-6,2.22,8.76,8.76,0,0,1-6.18-2.11,7.33,7.33,0,0,1-2.28-5.67A6.46,6.46,0,0,1,25,358.55,8,8,0,0,1,30.55,356.69Zm-.76,2.6a5,5,0,0,0-3.41,1.2,4,4,0,0,0-1.28,3.09,4.84,4.84,0,0,0,1.24,3.49,5.14,5.14,0,0,0,3.47,1.51Z"/><path id="DejaVuSans-108" d="M17.1,352.41v-2.6h22v2.6Z"/><path id="DejaVuSans-111" d="M25.1,338.21a3.9,3.9,0,0,0,1.64,3.31,7.29,7.29,0,0,0,4.48,1.22,7.36,7.36,0,0,0,4.48-1.21,4.16,4.16,0,0,0,0-6.62,7.4,7.4,0,0,0-4.48-1.22,7.38,7.38,0,0,0-4.47,1.22A3.88,3.88,0,0,0,25.1,338.21Zm-2.2,0a6.73,6.73,0,0,1,2.21-5.34,9,9,0,0,1,6.11-1.94,9,9,0,0,1,6.11,1.94,7.54,7.54,0,0,1,0,10.69,9,9,0,0,1-6.11,1.93,9,9,0,0,1-6.11-1.93A6.71,6.71,0,0,1,22.9,338.21Z"/><path id="DejaVuSans-99" d="M23.88,315.2h2.44a9.84,9.84,0,0,0-.91,2.21,8.2,8.2,0,0,0-.31,2.25,5,5,0,0,0,1.61,3.94,6.65,6.65,0,0,0,4.51,1.4,6.65,6.65,0,0,0,4.51-1.4,5,5,0,0,0,1.61-3.94,8.2,8.2,0,0,0-.31-2.25,9.84,9.84,0,0,0-.91-2.21h2.41a10.74,10.74,0,0,1,.76,2.26,11.57,11.57,0,0,1,.26,2.48,7.45,7.45,0,0,1-2.25,5.7,8.57,8.57,0,0,1-6.08,2.11,8.44,8.44,0,0,1-6.1-2.13,7.75,7.75,0,0,1-2.22-5.85,10.84,10.84,0,0,1,.25-2.35A10.5,10.5,0,0,1,23.88,315.2Z"/><path id="DejaVuSans-105-2" data-name="DejaVuSans-105" d="M23.28,310.67v-2.61H39.14v2.61Zm-6.18,0v-2.61h3.3v2.61Z"/><path id="DejaVuSans-116-2" data-name="DejaVuSans-116" d="M18.77,300h4.51v-5.36h2V300h8.61a3.83,3.83,0,0,0,2.49-.53,3,3,0,0,0,.56-2.16v-2.67h2.18v2.67c0,2-.38,3.4-1.13,4.17s-2.12,1.14-4.1,1.14H25.3v1.91h-2v-1.91H18.77Z"/><path id="DejaVuSans-121" d="M40.61,284.64a9.25,9.25,0,0,1,3.69,2.16,4.23,4.23,0,0,1,.87,2.8v2.08H43v-1.53a2.49,2.49,0,0,0-.51-1.67,6.4,6.4,0,0,0-2.41-1.32l-1.19-.46-15.6,6.41v-2.76l12.4-5-12.4-5v-2.76Z"/><path id="DejaVuSans-32" d="M39.14,276.81"/><path id="DejaVuSans-40" d="M17.13,258.6a28.58,28.58,0,0,0,6.45,2.82,23.06,23.06,0,0,0,12.93,0A28.59,28.59,0,0,0,43,258.6v2.27A29.22,29.22,0,0,1,36.42,264a19.76,19.76,0,0,1-12.74,0,29.11,29.11,0,0,1-6.55-3.18Z"/><path id="STIXSizeOneSym-Regular-8730" d="M8.93,236.88l32.9,10v.75l-13.37,4.11a2.67,2.67,0,0,0-.93.45.85.85,0,0,0-.29.66,2,2,0,0,0,.48,1.21l-.35.21-2.25-2.92v-.44l13.13-4v-.08L8.93,237.9Z"/><path id="DejaVuSans-Oblique-949" d="M30.59,228.11a3.58,3.58,0,0,1-1.26,2.2,2.5,2.5,0,0,1-1.53.49A4.29,4.29,0,0,1,24,228.51a8.76,8.76,0,0,1-1.1-4.59,14.75,14.75,0,0,1,.17-2.25,21.21,21.21,0,0,1,.51-2.49l2.36.45a18,18,0,0,0-.59,2.39,12.44,12.44,0,0,0-.19,2.12,5.34,5.34,0,0,0,.66,2.79,2.23,2.23,0,0,0,1.91,1.34,1.54,1.54,0,0,0,1.27-.7,4,4,0,0,0,.63-2.46v-2.2l2.15.41v2.1a5.78,5.78,0,0,0,.72,3.1,2.89,2.89,0,0,0,2.5,1.56,1.92,1.92,0,0,0,1.6-.84,5.24,5.24,0,0,0,.8-3.18,13,13,0,0,0-.26-2.58,10.08,10.08,0,0,0-.79-2.36l2.42.48a19.29,19.29,0,0,1,.6,2.57,15.26,15.26,0,0,1,.2,2.37,7.78,7.78,0,0,1-1.29,5,3.27,3.27,0,0,1-2.66,1.21A4.59,4.59,0,0,1,32,231.11,6.14,6.14,0,0,1,30.59,228.11Z"/><path id="DejaVuSans-47-2" data-name="DejaVuSans-47" d="M18,210.79v-2.4l23.84,7.36v2.41Z"/><path id="DejaVuSans-Oblique-109" d="M29.57,182.34l9.58,1.86v2.6L29.66,185c-.41-.08-.76-.13-1.05-.17a5.6,5.6,0,0,0-.75-.06,2.46,2.46,0,0,0-2.69,2.69,4.8,4.8,0,0,0,1.42,3.39,6.74,6.74,0,0,0,3.71,1.92l8.85,1.74v2.61l-9.49-1.86c-.35-.07-.67-.13-1-.16a6,6,0,0,0-.8-.06,2.71,2.71,0,0,0-2,.7,2.64,2.64,0,0,0-.72,2,4.83,4.83,0,0,0,1.42,3.41A6.69,6.69,0,0,0,30.3,203l8.85,1.74v2.61l-15.86-3.1v-2.61l2.46.49a7.23,7.23,0,0,1-2.12-2.48,6.68,6.68,0,0,1-.72-3,4.37,4.37,0,0,1,.9-2.84,3.82,3.82,0,0,1,2.52-1.34,8.6,8.6,0,0,1-2.55-2.75,6.74,6.74,0,0,1-.87-3.31,4.13,4.13,0,0,1,1.17-3.15,4.64,4.64,0,0,1,3.32-1.11,9.58,9.58,0,0,1,1,.06C28.8,182.21,29.18,182.27,29.57,182.34Z"/><path id="DejaVuSans-41" d="M17.13,174.19v-2.27a30,30,0,0,1,6.55-3.18,19.85,19.85,0,0,1,12.74,0A29.72,29.72,0,0,1,43,171.92v2.27a28.59,28.59,0,0,0-6.45-2.81,23.18,23.18,0,0,0-6.48-.93,22.87,22.87,0,0,0-6.45.93A29,29,0,0,0,17.13,174.19Z"/><path d="M10.83,237.46H9v-61h1.82Z"/></g></g><g id="patch_3" data-name="patch 3"><path d="M117.55,550.8V7.2" fill="none" stroke="#000" stroke-linecap="square" stroke-width="2.5"/></g><g id="patch_4" data-name="patch 4"><path d="M675.55,550.8V7.2" fill="none" stroke="#000" stroke-linecap="square" stroke-width="2.5"/></g><g id="patch_5" data-name="patch 5"><path d="M117.55,550.8h558" fill="none" stroke="#000" stroke-linecap="square" stroke-width="2.5"/></g><g id="patch_3-2" data-name="patch 3"><path d="M118.11,5.89l470.6.49c-9.42,6.33-25.1,16.8-41.22,26.78-4.42,2.74-16.71,10.32-42.79,25.45C483.41,71,468.51,79.32,460.14,84.05c-33.51,18.94-59.12,33.41-84.68,50-36,23.4-58.39,37.89-83.79,63.84-27.12,27.7-43.19,48.64-56.59,68.76-14.31,21.49-14.74,17.43-25.29,56-10.33,37.81-8.66,32.7-13.58,55.79-3.07,14.45-8.93,36.21-22.33,56.7-19.31,29.53-36.33,37.66-53.75,47.94,0-180.88-2-296.34-2-477.21" fill="#f68f3c" opacity="0.2"/></g><path d="M228.82,548.51c6.7-13.09,20.88-30.45,43.67-45,55.62-35.57,49.16-31.47,61-38.71C387.21,432.05,439.08,420,499.6,362.62c50.34-47.71,60.23-83,119.19-150.53,20.18-23.11,43.5-35,57.32-43.82l-1,380.27Z" fill="#0c2d48" opacity="0.2"/><path d="M118.75,5.89l470,.49c-9.42,6.33-25.1,16.8-41.22,26.78-4.42,2.74-16.71,10.32-42.79,25.45C483.41,71,468.51,79.32,460.14,84.05c-33.51,18.94-59.12,33.41-84.68,50-36,23.4-58.39,37.89-83.79,63.84-27.12,27.7-43.19,48.64-56.59,68.76-14.31,21.49-14.74,17.43-25.29,56-10.33,37.81-8.66,32.7-13.58,55.79-3.07,14.45-8.93,36.21-22.33,56.7-19.31,29.53-36.33,37.66-53.75,47.94,0-113.51-.8-201.26-1.39-295.59V549.73H676.11V168.27l-1,380.27-446.25,0c6.7-13.09,20.88-30.45,43.67-45,55.62-35.57,49.16-31.47,61-38.71C387.21,432.05,439.08,420,499.6,362.62c50.34-47.71,60.23-83,119.19-150.53,20.18-23.11,43.5-35,57.32-43.82V5.89Z" fill="#5e8d5a" opacity="0.2"/><text transform="translate(168.27 74.8)" font-size="21" font-family="ArialMT, Arial">Damage Zone</text><path d="M162.23,52.67H309a4,4,0,0,1,4,4V78.18a4,4,0,0,1-4,4H162.23a4,4,0,0,1-4-4V56.66A4,4,0,0,1,162.23,52.67Z" fill="none" stroke="#000" stroke-width="1.25"/><text transform="translate(457.22 494.06)" font-size="21" font-family="ArialMT, Arial">No Pore Zone</text><path d="M448.18,471.92H594.93a4,4,0,0,1,4,4v21.52a4,4,0,0,1-4,4H448.18a4,4,0,0,1-4-4V475.91A4,4,0,0,1,448.18,471.92Z" fill="none" stroke="#000" stroke-width="1.25"/><text transform="translate(394.82 190.41)" font-size="21" font-family="ArialMT, Arial">Safe Zone</text><path d="M370.82,168.27H517.56a4,4,0,0,1,4,4v21.52a4,4,0,0,1-4,4H370.82a4,4,0,0,1-4-4V172.26A4,4,0,0,1,370.82,168.27Z" fill="none" stroke="#000" stroke-width="1.25"/><g id="patch_6" data-name="patch 6"><path d="M117.55,7.2h558" fill="none" stroke="#000" stroke-linecap="square" stroke-width="2.5"/></g></g></g></svg>